<?xml version="1.0" encoding="UTF-8" standalone="no"?>
<svg width="512px" height="512px" viewBox="0 0 512 512" version="1.1" xmlns="http://www.w3.org/2000/svg" xmlns:xlink="http://www.w3.org/1999/xlink">
    <!-- Generator: Sketch 3.8.3 (29802) - http://www.bohemiancoding.com/sketch -->
    <title>calendar</title>
    <desc>Created with Sketch.</desc>
    <defs></defs>
    <g id="Page-1" stroke="none" stroke-width="1" fill="none" fill-rule="evenodd">
        <g id="calendar" fill="#000000">
            <path d="M357.086565,368.764663 L304.56814,368.764663 L304.56814,421.266121 L357.086565,421.266121 L357.086565,368.764663 L357.086565,368.764663 Z M283.091088,228.253099 L230.6046,228.253099 L230.6046,280.743579 L283.091088,280.743579 L283.091088,228.253099 L283.091088,228.253099 Z M357.086565,298.507883 L304.56814,298.507883 L304.56814,351.003353 L357.086565,351.003353 L357.086565,298.507883 L357.086565,298.507883 Z M431.015173,228.253099 L378.52669,228.253099 L378.52669,280.743579 L431.015173,280.743579 L431.015173,228.253099 L431.015173,228.253099 Z M283.091088,298.507883 L230.6046,298.507883 L230.6046,351.003353 L283.091088,351.003353 L283.091088,298.507883 L283.091088,298.507883 Z M357.086565,228.253099 L304.56814,228.253099 L304.56814,280.743579 L357.086565,280.743579 L357.086565,228.253099 L357.086565,228.253099 Z M431.015173,298.507883 L378.52669,298.507883 L378.52669,351.003353 L431.015173,351.003353 L431.015173,298.507883 L431.015173,298.507883 Z M135.177981,368.764663 L82.6855049,368.764663 L82.6855049,421.266121 L135.177981,421.266121 L135.177981,368.764663 L135.177981,368.764663 Z M135.177981,298.507883 L82.6855049,298.507883 L82.6855049,351.003353 L135.177981,351.003353 L135.177981,298.507883 L135.177981,298.507883 Z M417.509552,43.1835634 L417.509552,66.2265575 C426.564865,74.2389084 432.303657,85.9161014 432.303657,98.9576296 C432.303657,123.102472 412.722901,142.685224 388.574066,142.685224 C364.417248,142.685224 344.845474,123.102472 344.845474,98.9576296 C344.845474,85.9111111 350.582269,74.2359142 359.640577,66.2265575 L359.640577,43.1835634 L155.315649,43.1835634 L155.315649,66.2265575 C164.371961,74.2389084 170.109754,85.9161014 170.109754,98.9576296 C170.109754,123.102472 150.529996,142.685224 126.380164,142.685224 C102.226339,142.685224 82.6515712,123.102472 82.6515712,98.9576296 C82.6515712,85.9111111 88.3903626,74.2359142 97.4456764,66.2265575 L97.4456764,43.1835634 L0.000998050682,43.1835634 L0.000998050682,508.518706 L511.002947,508.518706 L511.002947,43.1835634 L417.509552,43.1835634 L417.509552,43.1835634 Z M464.333099,461.843867 L46.6728421,461.843867 L46.6728421,171.130667 L464.333099,171.130667 L464.333099,461.843867 L464.333099,461.843867 L464.333099,461.843867 Z M209.166472,228.253099 L156.645053,228.253099 L156.645053,280.743579 L209.166472,280.743579 L209.166472,228.253099 L209.166472,228.253099 Z M209.166472,368.764663 L156.645053,368.764663 L156.645053,421.266121 L209.166472,421.266121 L209.166472,368.764663 L209.166472,368.764663 Z M283.091088,368.764663 L230.6046,368.764663 L230.6046,421.266121 L283.091088,421.266121 L283.091088,368.764663 L283.091088,368.764663 Z M209.166472,298.507883 L156.645053,298.507883 L156.645053,351.003353 L209.166472,351.003353 L209.166472,298.507883 L209.166472,298.507883 Z M126.38216,124.433871 C138.40368,124.433871 148.150643,114.690901 148.150643,102.66938 L148.150643,24.2585263 C148.150643,12.2429942 138.40368,2.49203899 126.38216,2.49203899 C114.358643,2.49203899 104.612678,12.2439922 104.612678,24.2585263 L104.612678,102.66938 C104.612678,114.689903 114.358643,124.433871 126.38216,124.433871 L126.38216,124.433871 Z M388.576062,124.433871 C400.595587,124.433871 410.344546,114.690901 410.344546,102.66938 L410.344546,24.2585263 C410.344546,12.2429942 400.595587,2.49203899 388.576062,2.49203899 C376.553544,2.49203899 366.805583,12.2439922 366.805583,24.2585263 L366.805583,102.66938 C366.803587,114.689903 376.551548,124.433871 388.576062,124.433871 L388.576062,124.433871 Z" id="Shape"></path>
        </g>
    </g>
</svg>