<?xml version="1.0" encoding="UTF-8" standalone="no"?>
<svg width="512px" height="512px" viewBox="0 0 512 512" version="1.1" xmlns="http://www.w3.org/2000/svg" xmlns:xlink="http://www.w3.org/1999/xlink">
    <!-- Generator: Sketch 3.8.3 (29802) - http://www.bohemiancoding.com/sketch -->
    <title>case</title>
    <desc>Created with Sketch.</desc>
    <defs></defs>
    <g id="Page-1" stroke="none" stroke-width="1" fill="none" fill-rule="evenodd">
        <g id="case" fill="#000000">
            <path d="M512,132.13993 L512,220.671664 C508.673663,234.744628 501.253373,247.794103 490.250875,258.54073 C474.898551,273.381309 454.172914,281.569215 432.167916,281.569215 L294.508746,281.569215 L294.508746,254.702649 C294.508746,243.188406 285.297351,233.977011 273.783108,233.977011 L238.472764,233.977011 C226.958521,233.977011 217.747126,243.188406 217.747126,254.702649 L217.747126,281.569215 L79.832084,281.569215 C57.8270865,281.569215 37.3573213,273.381309 21.7491254,258.54073 C10.7466267,248.049975 3.32633683,235.0005 0,220.671664 L0,132.13993 C0,112.949525 15.6081959,97.3413293 34.7986007,97.3413293 L477.201399,97.3413293 C496.391804,97.3413293 512,113.205397 512,132.13993 L512,132.13993 Z M273.783108,329.161419 C275.574213,329.161419 277.109445,327.626187 277.109445,325.835082 L277.109445,298.968516 L277.109445,281.569215 L277.109445,254.702649 C277.109445,252.911544 275.574213,251.376312 273.783108,251.376312 L238.472764,251.376312 C236.681659,251.376312 235.146427,252.911544 235.146427,254.702649 L235.146427,281.569215 L235.146427,298.968516 L235.146427,325.835082 C235.146427,327.626187 236.681659,329.161419 238.472764,329.161419 L273.783108,329.161419 L273.783108,329.161419 Z M502.276862,271.078461 C483.598201,288.989505 458.778611,298.968516 432.167916,298.968516 L294.508746,298.968516 L294.508746,325.835082 C294.508746,337.093453 285.297351,346.56072 273.783108,346.56072 L238.472764,346.56072 C226.958521,346.56072 217.747126,337.349325 217.747126,325.835082 L217.747126,298.968516 L79.832084,298.968516 C53.4772614,298.968516 28.6576712,288.989505 9.72313843,271.078461 C6.14092954,267.752124 2.8145927,263.914043 0,260.331834 L0,448.397801 C0,467.588206 15.6081959,483.196402 34.7986007,483.196402 L477.201399,483.196402 C496.391804,483.196402 512,467.588206 512,448.397801 L512,260.331834 C509.185407,263.914043 505.85907,267.496252 502.276862,271.078461 L502.276862,271.078461 Z M336.215892,38.2348826 C329.307346,31.3263368 320.607696,28 311.652174,28 L200.603698,28 C191.648176,28 182.692654,31.3263368 176.03998,38.2348826 C169.387306,44.8875562 165.805097,53.8430785 165.805097,62.7986007 L165.805097,80.197901 L195.230385,80.197901 L195.230385,62.7986007 C195.230385,61.7751124 195.486257,60.4957521 196.765617,59.2163918 C198.044978,57.9370315 199.58021,57.6811594 200.347826,57.6811594 L311.396302,57.6811594 C312.41979,57.6811594 313.69915,57.9370315 314.978511,59.2163918 C316.257871,60.4957521 316.513743,62.0309845 316.513743,62.7986007 L316.513743,80.197901 L345.93903,80.197901 L345.93903,62.7986007 C346.450775,53.8430785 342.868566,44.8875562 336.215892,38.2348826 L336.215892,38.2348826 Z" id="Shape"></path>
        </g>
    </g>
</svg>