<?xml version="1.0" encoding="UTF-8" standalone="no"?>
<svg width="512px" height="512px" viewBox="0 0 512 512" version="1.1" xmlns="http://www.w3.org/2000/svg" xmlns:xlink="http://www.w3.org/1999/xlink">
    <!-- Generator: Sketch 3.8.3 (29802) - http://www.bohemiancoding.com/sketch -->
    <title>ellipsis</title>
    <desc>Created with Sketch.</desc>
    <defs></defs>
    <g id="Page-1" stroke="none" stroke-width="1" fill="none" fill-rule="evenodd">
        <g id="ellipsis" fill="#000000">
            <path d="M139.588969,290.886381 L139.588969,360.702588 C139.588969,370.405317 136.200255,378.645397 129.422826,385.422826 C122.645397,392.200255 114.405317,395.588969 104.702588,395.588969 L34.886381,395.588969 C25.1836515,395.588969 16.9435723,392.200255 10.1661434,385.422826 C3.38871447,378.645397 1.66225399e-14,370.405317 1.42108547e-14,360.702588 L1.42108547e-14,290.886381 C1.42108547e-14,281.183652 3.38871447,272.943572 10.1661434,266.166143 C16.9435723,259.388714 25.1836515,256 34.886381,256 L104.702588,256 C114.405317,256 122.645397,259.388714 129.422826,266.166143 C136.200255,272.943572 139.588969,281.183652 139.588969,290.886381 L139.588969,290.886381 Z M325.794485,290.886381 L325.794485,360.702588 C325.794485,370.405317 322.40577,378.645397 315.628341,385.422826 C308.850912,392.200255 300.610833,395.588969 290.908104,395.588969 L221.091896,395.588969 C211.389167,395.588969 203.149088,392.200255 196.371659,385.422826 C189.59423,378.645397 186.205515,370.405317 186.205515,360.702588 L186.205515,290.886381 C186.205515,281.183652 189.59423,272.943572 196.371659,266.166143 C203.149088,259.388714 211.389167,256 221.091896,256 L290.908104,256 C300.610833,256 308.850912,259.388714 315.628341,266.166143 C322.40577,272.943572 325.794485,281.183652 325.794485,290.886381 L325.794485,290.886381 Z M512,290.886381 L512,360.702588 C512,370.405317 508.611286,378.645397 501.833857,385.422826 C495.056428,392.200255 486.816348,395.588969 477.113619,395.588969 L407.297412,395.588969 C397.594683,395.588969 389.354603,392.200255 382.577174,385.422826 C375.799745,378.645397 372.411031,370.405317 372.411031,360.702588 L372.411031,290.886381 C372.411031,281.183652 375.799745,272.943572 382.577174,266.166143 C389.354603,259.388714 397.594683,256 407.297412,256 L477.113619,256 C486.816348,256 495.056428,259.388714 501.833857,266.166143 C508.611286,272.943572 512,281.183652 512,290.886381 L512,290.886381 Z" id="Shape"></path>
        </g>
    </g>
</svg>