<?xml version="1.0" encoding="UTF-8" standalone="no"?>
<svg width="512px" height="512px" viewBox="0 0 512 512" version="1.1" xmlns="http://www.w3.org/2000/svg" xmlns:xlink="http://www.w3.org/1999/xlink">
    <!-- Generator: Sketch 3.8.3 (29802) - http://www.bohemiancoding.com/sketch -->
    <title>menu</title>
    <desc>Created with Sketch.</desc>
    <defs></defs>
    <g id="Page-1" stroke="none" stroke-width="1" fill="none" fill-rule="evenodd">
        <g id="menu" fill="#000000">
            <path d="M512,405.290667 C512,411.242667 507.242667,416 501.290667,416 L117.290667,416 C111.466667,416 106.752,411.242667 106.752,405.290667 L106.752,362.688 C106.752,356.757333 111.466667,352 117.290667,352 L501.290667,352 C507.242667,352 512,356.757333 512,362.688 L512,405.290667 L512,405.290667 Z M64,405.290667 C64,411.242667 59.2426667,416 53.2906667,416 L10.752,416 C4.75733333,416 0,411.242667 0,405.290667 L0,362.688 C0,356.757333 4.75733333,352 10.752,352 L53.2906667,352 C59.2426667,352 64,356.757333 64,362.688 L64,405.290667 L64,405.290667 Z M512,277.312 C512,283.264 507.242667,288 501.290667,288 L117.290667,288 C111.466667,288 106.752,283.242667 106.752,277.312 L106.752,234.645333 C106.752,228.821333 111.466667,224.021333 117.290667,224.021333 L501.290667,224.021333 C507.242667,224.021333 512,228.821333 512,234.645333 L512,277.312 L512,277.312 Z M64,277.312 C64,283.242667 59.2426667,288 53.2906667,288 L10.752,288 C4.75733333,288 0,283.242667 0,277.312 L0,234.645333 C0,228.8 4.75733333,224 10.752,224 L53.2906667,224 C59.2426667,224 64,228.8 64,234.624 L64,277.312 L64,277.312 Z M512,149.354667 C512,155.178667 507.242667,160 501.290667,160 L117.290667,160 C111.466667,160 106.752,155.178667 106.752,149.354667 L106.752,106.624 C106.752,100.8 111.466667,96 117.290667,96 L501.290667,96 C507.242667,96 512,100.8 512,106.624 L512,149.354667 L512,149.354667 Z M64,149.354667 C64,155.178667 59.2426667,160 53.2906667,160 L10.752,160 C4.75733333,160 0,155.178667 0,149.354667 L0,106.624 C0,100.8 4.75733333,96 10.752,96 L53.2906667,96 C59.2426667,96 64,100.8 64,106.624 L64,149.354667 L64,149.354667 Z" id="Shape"></path>
        </g>
    </g>
</svg>