<?xml version="1.0" encoding="UTF-8" standalone="no"?>
<svg width="512px" height="512px" viewBox="0 0 512 512" version="1.1" xmlns="http://www.w3.org/2000/svg" xmlns:xlink="http://www.w3.org/1999/xlink">
    <!-- Generator: Sketch 3.8.3 (29802) - http://www.bohemiancoding.com/sketch -->
    <title>settings</title>
    <desc>Created with Sketch.</desc>
    <defs></defs>
    <g id="Page-1" stroke="none" stroke-width="1" fill="none" fill-rule="evenodd">
        <g id="settings" fill="#000000">
            <path d="M291.438855,15.0732121 C308.687965,14.2175263 325.227614,20.8626308 341.057801,35.0085255 L455.865927,138.941859 L468.175888,125.657066 L512,165.332726 L445.224011,239.089595 L401.383652,199.121485 L412.280107,187.087726 L296.860004,82.5911563 C283.49939,70.6819593 266.921831,65.2174846 247.116495,66.1977323 C233.988759,66.8476203 221.364685,69.9345881 209.260521,75.4478044 C235.039411,36.6386612 262.432189,16.5137971 291.438855,15.0732121 Z M426.864288,106.799787 L374.091281,59.0243046 L383.312003,48.8390541 L436.08501,96.6145364 L426.864288,106.799787 Z M159.646991,288.107395 L19.4065828,436.206031 L86.680819,497.111366 L220.389853,342.892951 L159.646991,288.107395 Z M295.419419,256.300795 L377.419033,161.698769 L324.339433,113.64497 L238.364671,204.845915 L295.419419,256.300795 Z M450.211901,422.460901 C451.831206,415.501684 452.470262,408.596624 452.129071,401.73489 C451.12716,381.550453 443.22019,364.745434 428.402744,351.336079 C413.590714,337.926723 395.994998,331.725709 375.604763,332.738451 C368.748445,333.079642 361.930037,334.303598 355.154955,336.404902 L282.643704,271.04242 L282.963233,270.67415 L225.31817,218.683113 L225.226102,218.780596 L149.308356,150.049527 C150.743525,143.301524 151.285099,136.493948 150.949323,129.632214 C149.92575,109.052428 142.007948,92.0578577 127.195918,78.6430869 C112.383888,65.2337318 94.8802388,59.0273017 74.6958017,60.0292123 C67.6391015,60.381235 60.7340418,61.7080896 53.9697912,64.0043604 L112.605933,117.089376 L60.6528058,174.78318 L2.0058324,121.703581 C0.391943949,128.662798 -0.252528287,135.573273 0.0886628967,142.429591 C1.09057351,162.619444 8.9975438,179.419048 23.8149895,192.828403 C38.6270194,206.237758 56.1306687,212.444188 76.3151059,211.436862 C83.7671546,211.068592 91.062147,209.628007 98.205499,207.104275 L123.654029,230.142804 L123.708186,230.083231 L289.407955,379.524969 L289.099258,379.86616 L303.434704,392.90183 C301.642096,400.261811 300.921804,407.567635 301.279242,414.819302 C302.291984,435.204121 310.161044,452.106624 324.870175,465.521395 C339.590138,478.936165 357.137113,485.13718 377.521932,484.124438 C384.383666,483.783247 391.196658,482.456392 397.955493,480.160121 L339.319351,427.075106 L391.564928,369.365054 L450.211901,422.460901 Z" id="Combined-Shape"></path>
        </g>
    </g>
</svg>