<svg style="position: absolute; width: 0; height: 0; overflow: hidden;" version="1.1" xmlns="http://www.w3.org/2000/svg" xmlns:xlink="http://www.w3.org/1999/xlink">
<defs>
<symbol id="sicon-calendar" viewBox="0 0 20 20">
<title>calendar</title>
<path class="path1" d="M13.949 14.405h-2.052v2.051h2.052v-2.051zM11.058 8.916h-2.050v2.050h2.050v-2.050zM13.949 11.66h-2.052v2.051h2.052v-2.051zM16.837 8.916h-2.050v2.050h2.050v-2.050zM11.058 11.66h-2.050v2.051h2.050v-2.051zM13.949 8.916h-2.052v2.050h2.052v-2.050zM16.837 11.66h-2.050v2.051h2.050v-2.051zM5.28 14.405h-2.050v2.051h2.050v-2.051zM5.28 11.66h-2.050v2.051h2.050v-2.051zM16.309 1.687v0.9c0.354 0.313 0.578 0.769 0.578 1.279 0 0.943-0.765 1.708-1.708 1.708s-1.708-0.765-1.708-1.708c0-0.51 0.224-0.966 0.578-1.279v-0.9h-7.981v0.9c0.354 0.313 0.578 0.769 0.578 1.279 0 0.943-0.765 1.708-1.708 1.708s-1.708-0.765-1.708-1.708c0-0.51 0.224-0.966 0.578-1.279v-0.9h-3.806v18.177h19.961v-18.177h-3.652zM18.138 18.041h-16.315v-11.356h16.315v11.356zM8.171 8.916h-2.052v2.050h2.052v-2.050zM8.171 14.405h-2.052v2.051h2.052v-2.051zM11.058 14.405h-2.050v2.051h2.050v-2.051zM8.171 11.66h-2.052v2.051h2.052v-2.051zM4.937 4.861c0.47 0 0.85-0.381 0.85-0.85v-3.063c0-0.469-0.381-0.85-0.85-0.85s-0.85 0.381-0.85 0.85v3.063c0 0.47 0.381 0.85 0.85 0.85v0zM15.179 4.861c0.47 0 0.85-0.381 0.85-0.85v-3.063c0-0.469-0.381-0.85-0.85-0.85s-0.85 0.381-0.85 0.85v3.063c-0 0.47 0.381 0.85 0.85 0.85v0z"></path>
</symbol>
<symbol id="sicon-car" viewBox="0 0 20 20">
<title>car</title>
<path class="path1" d="M17.689 2.216c-0.228-0.656-0.85-1.122-1.578-1.122h-12.222c-0.728 0-1.35 0.467-1.578 1.122l-2.311 6.656v8.889c0 0.611 0.5 1.111 1.111 1.111h1.111c0.617 0 1.111-0.5 1.111-1.111v-1.111h13.333v1.111c0 0.611 0.5 1.111 1.111 1.111h1.111c0.617 0 1.111-0.5 1.111-1.111v-8.889l-2.311-6.656zM3.889 13.316c-0.922 0-1.667-0.744-1.667-1.667s0.744-1.667 1.667-1.667c0.922 0 1.667 0.744 1.667 1.667s-0.744 1.667-1.667 1.667v0zM16.111 13.316c-0.922 0-1.667-0.744-1.667-1.667s0.744-1.667 1.667-1.667c0.922 0 1.667 0.744 1.667 1.667s-0.744 1.667-1.667 1.667v0zM2.222 7.76l1.667-5h12.222l1.667 5h-15.556z"></path>
</symbol>
<symbol id="sicon-case" viewBox="0 0 20 20">
<title>case</title>
<path class="path1" d="M20 5.162v3.458c-0.13 0.55-0.42 1.059-0.85 1.479-0.6 0.58-1.409 0.9-2.269 0.9h-5.377v-1.049c0-0.45-0.36-0.81-0.81-0.81h-1.379c-0.45 0-0.81 0.36-0.81 0.81v1.049h-5.387c-0.86 0-1.659-0.32-2.269-0.9-0.43-0.41-0.72-0.92-0.85-1.479v-3.458c0-0.75 0.61-1.359 1.359-1.359h17.281c0.75 0 1.359 0.62 1.359 1.359v0zM10.695 12.858c0.070 0 0.13-0.060 0.13-0.13v-2.779c0-0.070-0.060-0.13-0.13-0.13h-1.379c-0.070 0-0.13 0.060-0.13 0.13v2.779c0 0.070 0.060 0.13 0.13 0.13h1.379zM19.62 10.589c-0.73 0.7-1.699 1.089-2.739 1.089h-5.377v1.049c0 0.44-0.36 0.81-0.81 0.81h-1.379c-0.45 0-0.81-0.36-0.81-0.81v-1.049h-5.387c-1.029 0-1.999-0.39-2.739-1.089-0.14-0.13-0.27-0.28-0.38-0.42v7.346c0 0.75 0.61 1.359 1.359 1.359h17.281c0.75 0 1.359-0.61 1.359-1.359v-7.346c-0.11 0.14-0.24 0.28-0.38 0.42v0zM13.133 1.494c-0.27-0.27-0.61-0.4-0.96-0.4h-4.338c-0.35 0-0.7 0.13-0.96 0.4-0.26 0.26-0.4 0.61-0.4 0.96v0.68h1.149v-0.68c0-0.040 0.010-0.090 0.060-0.14s0.11-0.060 0.14-0.060h4.338c0.040 0 0.090 0.010 0.14 0.060s0.060 0.11 0.060 0.14v0.68h1.149v-0.68c0.020-0.35-0.12-0.7-0.38-0.96v0z"></path>
</symbol>
<symbol id="sicon-ellipsis" viewBox="0 0 20 20">
<title>ellipsis</title>
<path class="path1" d="M5.453 11.363v2.727c0 0.379-0.132 0.701-0.397 0.966s-0.587 0.397-0.966 0.397h-2.727c-0.379 0-0.701-0.132-0.966-0.397s-0.397-0.587-0.397-0.966v-2.727c0-0.379 0.132-0.701 0.397-0.966s0.587-0.397 0.966-0.397h2.727c0.379 0 0.701 0.132 0.966 0.397s0.397 0.587 0.397 0.966v0zM12.726 11.363v2.727c0 0.379-0.132 0.701-0.397 0.966s-0.587 0.397-0.966 0.397h-2.727c-0.379 0-0.701-0.132-0.966-0.397s-0.397-0.587-0.397-0.966v-2.727c0-0.379 0.132-0.701 0.397-0.966s0.587-0.397 0.966-0.397h2.727c0.379 0 0.701 0.132 0.966 0.397s0.397 0.587 0.397 0.966v0zM20 11.363v2.727c0 0.379-0.132 0.701-0.397 0.966s-0.587 0.397-0.966 0.397h-2.727c-0.379 0-0.701-0.132-0.966-0.397s-0.397-0.587-0.397-0.966v-2.727c0-0.379 0.132-0.701 0.397-0.966s0.587-0.397 0.966-0.397h2.727c0.379 0 0.701 0.132 0.966 0.397s0.397 0.587 0.397 0.966v0z"></path>
</symbol>
<symbol id="sicon-gift" viewBox="0 0 20 20">
<title>gift</title>
<path class="path1" d="M15.11 6.086c0.359-0.255 0.701-0.538 1.017-0.853 0.66-0.66 1.102-1.472 1.244-2.286 0.155-0.893-0.073-1.721-0.625-2.274-0.441-0.441-1.037-0.673-1.727-0.673-0.981 0-2.014 0.471-2.834 1.291-1.314 1.314-2.079 3.127-2.491 4.42-0.305-1.3-0.913-3.055-2.095-4.237-0.634-0.634-1.445-0.959-2.209-0.959-0.626 0-1.221 0.217-1.665 0.662-0.987 0.987-0.854 2.722 0.298 3.875 0.411 0.411 0.892 0.753 1.397 1.036h-4.288v5.058h1.264v8.853h15.175v-8.853h1.265v-5.058l-3.727-0.003zM13.189 2.296c0.548-0.548 1.232-0.875 1.829-0.875 0.212 0 0.509 0.045 0.72 0.256 0.514 0.514 0.225 1.705-0.618 2.549-0.869 0.869-2.037 1.465-3.051 1.859h-1.001c0.367-1.137 1.029-2.696 2.122-3.789h-0.001zM4.487 2.942c-0.013-0.181-0.001-0.518 0.241-0.761 0.202-0.202 0.469-0.246 0.658-0.246v0c0.42 0 0.859 0.198 1.205 0.544 0.669 0.669 1.221 1.735 1.594 3.080 0.009 0.036 0.020 0.073 0.030 0.108-0.036-0.009-0.071-0.019-0.108-0.030-1.346-0.374-2.41-0.925-3.080-1.594-0.313-0.313-0.509-0.715-0.54-1.102l-0.001 0.001zM8.718 18.732h-5.058v-8.22h5.058v8.22zM8.718 9.879h-6.324v-2.529h6.324v2.529zM16.305 18.732h-5.058v-8.22h5.058v8.22zM17.569 9.879h-6.324v-2.529h6.324v2.529z"></path>
</symbol>
<symbol id="sicon-house" viewBox="0 0 20 20">
<title>house</title>
<path class="path1" d="M19.851 10.206l-9.372-9.689c-0.133-0.136-0.306-0.204-0.479-0.204s-0.346 0.068-0.479 0.204l-9.372 9.689c-0.263 0.273-0.169 0.498 0.209 0.498h2.757l0.002 8.958h5.159v-5.512h3.447l-0.012 5.512h5.188l-0.001-8.958h2.742c0.378 0 0.473-0.224 0.21-0.498v0z"></path>
</symbol>
<symbol id="sicon-key" viewBox="0 0 20 20">
<title>key</title>
<path class="path1" d="M7 0c-3.9 0-7 3.1-7 7s3.1 7 7 7c3.9 0 7-3.1 7-7s-3.1-7-7-7v0zM5.5 8c-1.4 0-2.5-1.1-2.5-2.5s1.1-2.5 2.5-2.5c1.4 0 2.5 1.1 2.5 2.5s-1.1 2.5-2.5 2.5v0z"></path>
<path class="path2" d="M13 9l-4 4 2 2h2v2h2v2l0.7 0.7c0.2 0.2 0.4 0.3 0.7 0.3h2.6c0.6 0 1-0.4 1-1v-2.6c0-0.3-0.1-0.5-0.3-0.7l-6.7-6.7z"></path>
</symbol>
<symbol id="sicon-medical" viewBox="0 0 20 20">
<title>medical</title>
<path class="path1" d="M1.404 15.887c0 0.784 0.635 1.42 1.42 1.42h14.196c0.784 0 1.42-0.635 1.42-1.42v-10.647c0-0.784-0.635-1.42-1.42-1.42h-2.839v-2.129c0-0.784-0.635-1.42-1.42-1.42h-5.678c-0.784 0-1.42 0.635-1.42 1.42v2.129h-2.839c-0.784 0-1.42 0.635-1.42 1.42v10.647h-0zM12.406 3.82h-4.969v-0.994c0-0.433 0.348-0.781 0.781-0.781h3.407c0.433 0 0.781 0.348 0.781 0.781v0.994h0zM6.444 8.789h1.704v-1.703c0-0.433 0.348-0.781 0.781-0.781h1.987c0.433 0 0.781 0.348 0.781 0.781v1.703h1.703c0.433 0 0.781 0.348 0.781 0.781v1.987c0 0.433-0.348 0.781-0.781 0.781h-1.703v1.704c0 0.433-0.348 0.781-0.781 0.781h-1.987c-0.433 0-0.781-0.348-0.781-0.781v-1.704h-1.704c-0.433 0-0.781-0.348-0.781-0.781v-1.987c0-0.433 0.348-0.781 0.781-0.781v0z"></path>
</symbol>
<symbol id="sicon-menu" viewBox="0 0 20 20">
<title>menu</title>
<path class="path1" d="M20 15.832c0 0.232-0.186 0.418-0.418 0.418h-15c-0.228 0-0.412-0.186-0.412-0.418v-1.664c0-0.232 0.184-0.418 0.412-0.418h15c0.233 0 0.418 0.186 0.418 0.418v1.664zM2.5 15.832c0 0.232-0.186 0.418-0.418 0.418h-1.662c-0.234 0-0.42-0.186-0.42-0.418v-1.664c0-0.232 0.186-0.418 0.42-0.418h1.662c0.232 0 0.418 0.186 0.418 0.418v1.664zM20 10.832c0 0.233-0.186 0.418-0.418 0.418h-15c-0.228 0-0.412-0.186-0.412-0.418v-1.667c0-0.228 0.184-0.415 0.412-0.415h15c0.233 0 0.418 0.188 0.418 0.415v1.667zM2.5 10.832c0 0.232-0.186 0.418-0.418 0.418h-1.662c-0.234 0-0.42-0.186-0.42-0.418v-1.667c0-0.228 0.186-0.416 0.42-0.416h1.662c0.232 0 0.418 0.188 0.418 0.415v1.667zM20 5.834c0 0.228-0.186 0.416-0.418 0.416h-15c-0.228 0-0.412-0.188-0.412-0.416v-1.669c0-0.228 0.184-0.415 0.412-0.415h15c0.233 0 0.418 0.188 0.418 0.415v1.669zM2.5 5.834c0 0.228-0.186 0.416-0.418 0.416h-1.662c-0.234 0-0.42-0.188-0.42-0.416v-1.669c0-0.228 0.186-0.415 0.42-0.415h1.662c0.232 0 0.418 0.188 0.418 0.415v1.669z"></path>
</symbol>
<symbol id="sicon-restaurant" viewBox="0 0 20 20">
<title>restaurant</title>
<path class="path1" d="M5.6 11.184l2.96-2.96-7.337-7.337c-1.632 1.632-1.632 4.283 0 5.914l4.377 4.382zM12.696 9.286c1.595 0.748 3.849 0.22 5.512-1.443 2.003-2.003 2.385-4.863 0.852-6.395-1.537-1.532-4.403-1.15-6.401 0.852-1.663 1.663-2.186 3.917-1.443 5.512-2.327 2.322-10.213 10.207-10.213 10.207l1.48 1.48 7.195-7.195 7.195 7.195 1.48-1.48-7.195-7.195 1.537-1.537z"></path>
</symbol>
<symbol id="sicon-settings" viewBox="0 0 20 20">
<title>settings</title>
<path class="path1" d="M11.384 0.589c0.674-0.033 1.32 0.226 1.938 0.779l4.485 4.060 0.481-0.519 1.712 1.55-2.608 2.881-1.713-1.561 0.426-0.47-4.509-4.082c-0.522-0.465-1.169-0.679-1.943-0.64-0.513 0.025-1.006 0.146-1.479 0.361 1.007-1.516 2.077-2.302 3.21-2.358zM16.674 4.172l-2.061-1.866 0.36-0.398 2.061 1.866-0.36 0.398zM6.236 11.254l-5.478 5.785 2.628 2.379 5.223-6.024-2.373-2.14zM11.54 10.012l3.203-3.695-2.073-1.877-3.358 3.563 2.229 2.010zM17.586 16.502c0.063-0.272 0.088-0.542 0.075-0.81-0.039-0.788-0.348-1.445-0.927-1.969s-1.266-0.766-2.062-0.726c-0.268 0.013-0.534 0.061-0.799 0.143l-2.832-2.553 0.012-0.014-2.252-2.031-0.004 0.004-2.966-2.685c0.056-0.264 0.077-0.53 0.064-0.798-0.040-0.804-0.349-1.468-0.928-1.992s-1.262-0.766-2.051-0.727c-0.276 0.014-0.545 0.066-0.81 0.155l2.29 2.074-2.029 2.254-2.291-2.073c-0.063 0.272-0.088 0.542-0.075 0.81 0.039 0.789 0.348 1.445 0.927 1.969s1.262 0.766 2.051 0.727c0.291-0.014 0.576-0.071 0.855-0.169l0.994 0.9 0.002-0.002 6.473 5.838-0.012 0.013 0.56 0.509c-0.070 0.288-0.098 0.573-0.084 0.856 0.040 0.796 0.347 1.457 0.922 1.981s1.26 0.766 2.057 0.727c0.268-0.013 0.534-0.065 0.798-0.155l-2.29-2.074 2.041-2.254 2.291 2.074z"></path>
</symbol>
<symbol id="sicon-student" viewBox="0 0 20 20">
<title>student</title>
<path class="path1" d="M10 2.495l-9.167 5 9.167 5 9.167-5z"></path>
<path class="path2" d="M15.833 10.661l-5.833 3.5-5.833-3.5v3.667l5.833 3.167 5.833-3.167z"></path>
<path class="path3" d="M17.5 7.495h1.667v6.667h-1.667z"></path>
</symbol>
<symbol id="sicon-thumbs-down" viewBox="0 0 20 20">
<title>thumbs-down</title>
<path class="path1" d="M3.202 4.39c0 0.217-0.079 0.405-0.237 0.563s-0.346 0.237-0.563 0.237c-0.225 0-0.415-0.079-0.569-0.237s-0.231-0.346-0.231-0.563c0-0.225 0.077-0.415 0.231-0.569s0.344-0.231 0.569-0.231c0.217 0 0.405 0.077 0.563 0.231s0.237 0.344 0.237 0.569v0zM5.201 10.79v-8c0-0.217-0.079-0.405-0.237-0.563s-0.346-0.237-0.563-0.237h-3.6c-0.217 0-0.405 0.079-0.563 0.237s-0.237 0.346-0.237 0.563v8c0 0.217 0.079 0.405 0.237 0.563s0.346 0.237 0.563 0.237h3.6c0.217 0 0.405-0.079 0.563-0.237s0.237-0.346 0.237-0.563v0zM19.313 8.928c0.458 0.509 0.687 1.129 0.687 1.862-0.008 0.65-0.247 1.213-0.718 1.687s-1.031 0.712-1.681 0.712h-3.463c0.033 0.116 0.066 0.217 0.1 0.3s0.080 0.175 0.137 0.275c0.058 0.1 0.1 0.175 0.125 0.225 0.15 0.309 0.263 0.546 0.337 0.712s0.154 0.41 0.237 0.732c0.084 0.322 0.125 0.64 0.125 0.956 0 0.2-0.002 0.362-0.006 0.487s-0.025 0.312-0.063 0.563c-0.038 0.251-0.088 0.459-0.149 0.626s-0.162 0.354-0.3 0.563c-0.138 0.209-0.305 0.378-0.5 0.506s-0.445 0.237-0.75 0.326c-0.305 0.089-0.649 0.132-1.032 0.131-0.217 0-0.405-0.079-0.563-0.237-0.166-0.166-0.308-0.375-0.426-0.626s-0.199-0.467-0.243-0.65c-0.045-0.182-0.097-0.437-0.157-0.763-0.075-0.35-0.131-0.602-0.169-0.756s-0.111-0.355-0.218-0.606c-0.108-0.251-0.236-0.451-0.387-0.6-0.275-0.275-0.695-0.775-1.262-1.499-0.408-0.534-0.829-1.038-1.262-1.513s-0.75-0.721-0.95-0.738c-0.208-0.017-0.387-0.103-0.538-0.257s-0.225-0.336-0.225-0.544v-8.013c0-0.217 0.079-0.402 0.237-0.556s0.346-0.234 0.563-0.243c0.292-0.008 0.95-0.191 1.976-0.55 0.642-0.217 1.144-0.382 1.507-0.494s0.869-0.233 1.519-0.363c0.65-0.129 1.25-0.194 1.799-0.194h1.613c1.108 0.017 1.929 0.342 2.462 0.975 0.483 0.575 0.687 1.33 0.612 2.262 0.325 0.309 0.55 0.7 0.675 1.175 0.141 0.509 0.141 0.996 0 1.462 0.383 0.509 0.562 1.080 0.538 1.713 0 0.267-0.063 0.583-0.188 0.95h-0.001z"></path>
</symbol>
<symbol id="sicon-thumbs-up" viewBox="0 0 20 20">
<title>thumbs-up</title>
<path class="path1" d="M3.201 15.591c0-0.217-0.079-0.405-0.237-0.563s-0.346-0.237-0.563-0.237c-0.225 0-0.415 0.079-0.569 0.237s-0.231 0.346-0.231 0.563c0 0.225 0.077 0.415 0.231 0.569s0.344 0.231 0.569 0.231c0.217 0 0.405-0.077 0.563-0.231s0.237-0.344 0.237-0.569v0zM5.201 9.192v7.999c0 0.217-0.079 0.405-0.237 0.563s-0.346 0.237-0.563 0.237h-3.6c-0.217 0-0.405-0.079-0.563-0.237s-0.237-0.346-0.237-0.563v-7.999c0-0.217 0.079-0.405 0.237-0.563s0.346-0.237 0.563-0.237h3.6c0.217 0 0.405 0.079 0.563 0.237s0.237 0.346 0.237 0.563v0zM20 9.192c0 0.717-0.229 1.337-0.687 1.862 0.125 0.366 0.188 0.683 0.188 0.95 0.025 0.633-0.154 1.204-0.538 1.713 0.141 0.467 0.141 0.954 0 1.462-0.125 0.475-0.35 0.867-0.675 1.175 0.075 0.934-0.129 1.688-0.612 2.262-0.534 0.633-1.354 0.958-2.462 0.975h-1.613c-0.549 0-1.149-0.065-1.799-0.194s-1.156-0.25-1.519-0.363c-0.362-0.112-0.865-0.277-1.507-0.494-1.025-0.358-1.684-0.542-1.976-0.549-0.217-0.008-0.405-0.089-0.563-0.243s-0.237-0.339-0.237-0.555v-8.013c0-0.208 0.075-0.389 0.225-0.544s0.329-0.24 0.538-0.257c0.2-0.017 0.517-0.263 0.95-0.738s0.854-0.979 1.262-1.513c0.566-0.725 0.987-1.224 1.262-1.499 0.15-0.15 0.279-0.35 0.387-0.6s0.18-0.452 0.218-0.606c0.038-0.154 0.094-0.406 0.169-0.756 0.059-0.325 0.111-0.579 0.157-0.763s0.127-0.401 0.243-0.65c0.116-0.249 0.258-0.457 0.426-0.626 0.158-0.158 0.346-0.237 0.563-0.237 0.383 0 0.727 0.044 1.032 0.131s0.554 0.196 0.75 0.326c0.195 0.129 0.362 0.298 0.5 0.506s0.238 0.396 0.3 0.563c0.062 0.167 0.111 0.376 0.149 0.626s0.059 0.438 0.063 0.563c0.004 0.125 0.006 0.288 0.006 0.487 0 0.317-0.040 0.633-0.119 0.95s-0.159 0.566-0.237 0.75c-0.079 0.183-0.193 0.417-0.343 0.7-0.025 0.050-0.067 0.125-0.125 0.225s-0.105 0.192-0.137 0.275c-0.033 0.083-0.066 0.183-0.1 0.3h3.463c0.65 0 1.212 0.237 1.687 0.712s0.712 1.037 0.712 1.687h0.001z"></path>
</symbol>
</defs>
</svg>
