<?xml version="1.0" encoding="UTF-8" standalone="no"?>
<svg width="512px" height="512px" viewBox="0 0 512 512" version="1.1" xmlns="http://www.w3.org/2000/svg" xmlns:xlink="http://www.w3.org/1999/xlink">
    <!-- Generator: Sketch 3.8.3 (29802) - http://www.bohemiancoding.com/sketch -->
    <title>car</title>
    <desc>Created with Sketch.</desc>
    <defs></defs>
    <g id="Page-1" stroke="none" stroke-width="1" fill="none" fill-rule="evenodd">
        <g id="car" fill="#000000">
            <path d="M452.835556,56.7288889 C447.004444,39.9466667 431.075556,28 412.444444,28 L99.5555556,28 C80.9244444,28 64.9955556,39.9466667 59.1644444,56.7288889 L0,227.111111 L0,454.666667 C0,470.311111 12.8,483.111111 28.4444444,483.111111 L56.8888889,483.111111 C72.6755556,483.111111 85.3333333,470.311111 85.3333333,454.666667 L85.3333333,426.222222 L426.666667,426.222222 L426.666667,454.666667 C426.666667,470.311111 439.466667,483.111111 455.111111,483.111111 L483.555556,483.111111 C499.342222,483.111111 512,470.311111 512,454.666667 L512,227.111111 L452.835556,56.7288889 L452.835556,56.7288889 Z M99.5555556,340.888889 C75.9466667,340.888889 56.8888889,321.831111 56.8888889,298.222222 C56.8888889,274.613333 75.9466667,255.555556 99.5555556,255.555556 C123.164444,255.555556 142.222222,274.613333 142.222222,298.222222 C142.222222,321.831111 123.164444,340.888889 99.5555556,340.888889 L99.5555556,340.888889 Z M412.444444,340.888889 C388.835556,340.888889 369.777778,321.831111 369.777778,298.222222 C369.777778,274.613333 388.835556,255.555556 412.444444,255.555556 C436.053333,255.555556 455.111111,274.613333 455.111111,298.222222 C455.111111,321.831111 436.053333,340.888889 412.444444,340.888889 L412.444444,340.888889 Z M56.8888889,198.666667 L99.5555556,70.6666667 L412.444444,70.6666667 L455.111111,198.666667 L56.8888889,198.666667 L56.8888889,198.666667 Z" id="Shape"></path>
        </g>
    </g>
</svg>