<?xml version="1.0" encoding="UTF-8" standalone="no"?>
<svg width="512px" height="512px" viewBox="0 0 512 512" version="1.1" xmlns="http://www.w3.org/2000/svg" xmlns:xlink="http://www.w3.org/1999/xlink">
    <!-- Generator: Sketch 3.8.3 (29802) - http://www.bohemiancoding.com/sketch -->
    <title>gift</title>
    <desc>Created with Sketch.</desc>
    <defs></defs>
    <g id="Page-1" stroke="none" stroke-width="1" fill="none" fill-rule="evenodd">
        <g id="gift" fill="#000000">
            <path d="M386.816416,155.806569 C396.001821,149.280097 404.772847,142.028462 412.853241,133.982599 C429.739192,117.096648 441.065556,96.3086262 444.691374,75.4515411 C448.662508,52.5916234 442.826668,31.3892224 428.703244,17.2312673 C417.411412,5.93943481 402.148445,0 384.502799,0 C359.398327,0 332.947123,12.0515276 311.951912,33.0467391 C278.318136,66.6805153 258.73872,113.090983 248.172051,146.206785 C240.36791,112.918325 224.794159,67.992716 194.54448,37.7430364 C178.314629,21.5131854 157.561138,13.1910703 137.981723,13.1910703 C121.959061,13.1910703 106.730627,18.7506576 95.3697309,30.1460848 C70.0926013,55.4232144 73.5112295,99.8308491 103.001214,129.355365 C113.533351,139.887503 125.8266,148.623997 138.775949,155.875632 L29,155.875632 L29,285.369124 L61.3561071,285.369124 L61.3561071,512 L449.836582,512 L449.836582,285.369124 L482.227221,285.369124 L482.227221,155.875632 L386.885479,155.875632 L386.816416,155.806569 Z M337.643421,58.7727794 C351.663249,44.7529507 369.17077,36.3617724 384.468267,36.3617724 C389.889728,36.3617724 397.48668,37.5013152 402.908141,42.922776 C416.064679,56.0793148 408.674917,86.5707156 387.092669,108.187496 C364.85432,130.425845 334.949956,145.688811 308.982195,155.772037 L283.359749,155.772037 C292.752344,126.661901 309.707358,86.7433736 337.677952,58.7727794 L337.643421,58.7727794 Z M114.880084,75.3134147 C114.534768,70.6861806 114.845552,62.0532812 121.06124,55.8375936 C126.240979,50.6578539 133.078236,49.5528428 137.912659,49.5528428 L137.912659,49.5528428 C148.651986,49.5528428 159.909287,54.6289877 168.749376,63.4690767 C185.877049,80.5967492 200.000472,107.876711 209.565725,142.304714 C209.807446,143.237068 210.083699,144.169421 210.32542,145.067242 C209.393067,144.825521 208.495245,144.5838 207.562892,144.307547 C173.100357,134.742294 145.854927,120.618871 128.727254,103.491198 C120.715924,95.4798678 115.708842,85.1894517 114.914615,75.2788831 L114.880084,75.3134147 Z M223.171174,479.540298 L93.6776826,479.540298 L93.6776826,269.104741 L223.171174,269.104741 L223.171174,479.540298 L223.171174,479.540298 Z M223.171174,252.909422 L61.2870439,252.909422 L61.2870439,188.162676 L223.171174,188.162676 L223.171174,252.909422 L223.171174,252.909422 Z M417.411412,479.540298 L287.91792,479.540298 L287.91792,269.104741 L417.411412,269.104741 L417.411412,479.540298 L417.411412,479.540298 Z M449.767519,252.909422 L287.883388,252.909422 L287.883388,188.162676 L449.767519,188.162676 L449.767519,252.909422 L449.767519,252.909422 Z" id="Shape"></path>
        </g>
    </g>
</svg>