<?xml version="1.0" encoding="UTF-8" standalone="no"?>
<svg width="512px" height="512px" viewBox="0 0 512 512" version="1.1" xmlns="http://www.w3.org/2000/svg" xmlns:xlink="http://www.w3.org/1999/xlink">
    <!-- Generator: Sketch 3.8.3 (29802) - http://www.bohemiancoding.com/sketch -->
    <title>medical</title>
    <desc>Created with Sketch.</desc>
    <defs></defs>
    <g id="Page-1" stroke="none" stroke-width="1" fill="none" fill-rule="evenodd">
        <g id="medical" fill="#010101">
            <path d="M35.949,406.711 C35.949,426.789 52.213,443.051 72.289,443.051 L435.71,443.051 C455.788,443.051 472.05,426.789 472.05,406.711 L472.05,134.145 C472.05,114.067 455.788,97.803 435.71,97.803 L363.025,97.803 L363.025,43.29 C363.025,23.213 346.762,6.95 326.683,6.95 L181.317,6.95 C161.238,6.95 144.975,23.214 144.975,43.29 L144.975,97.803 L72.29,97.803 C52.213,97.803 35.95,114.067 35.95,134.145 L35.95,406.711 L35.949,406.711 Z M317.599,97.802 L190.401,97.802 L190.401,72.367 C190.401,61.284 199.306,52.376 210.392,52.376 L297.607,52.376 C308.692,52.376 317.598,61.285 317.598,72.367 L317.598,97.802 L317.599,97.802 Z M164.963,225 L208.573,225 L208.573,181.392 C208.573,170.309 217.475,161.401 228.562,161.401 L279.439,161.401 C290.519,161.401 299.426,170.31 299.426,181.392 L299.426,225 L343.033,225 C354.118,225 363.025,233.907 363.025,244.991 L363.025,295.866 C363.025,306.947 354.118,315.852 343.033,315.852 L299.426,315.852 L299.426,359.465 C299.426,370.545 290.519,379.451 279.439,379.451 L228.562,379.451 C217.476,379.451 208.573,370.545 208.573,359.465 L208.573,315.852 L164.963,315.852 C153.877,315.852 144.974,306.947 144.974,295.866 L144.974,244.991 C144.975,233.907 153.877,225 164.963,225 L164.963,225 Z" id="Shape"></path>
        </g>
    </g>
</svg>