<?xml version="1.0" encoding="UTF-8" standalone="no"?>
<svg width="512px" height="512px" viewBox="0 0 512 512" version="1.1" xmlns="http://www.w3.org/2000/svg" xmlns:xlink="http://www.w3.org/1999/xlink">
    <!-- Generator: Sketch 3.8.3 (29802) - http://www.bohemiancoding.com/sketch -->
    <title>restaurant</title>
    <desc>Created with Sketch.</desc>
    <defs></defs>
    <g id="Page-1" stroke="none" stroke-width="1" fill="none" fill-rule="evenodd">
        <g id="restaurant" fill="#000000">
            <path d="M143.371722,286.314865 L219.140531,210.546056 L31.324914,22.7304392 C-10.441638,64.4969912 -10.441638,132.367638 31.324914,174.13419 L143.371722,286.314865 L143.371722,286.314865 Z M325.029449,237.721088 C365.858931,256.864091 423.555674,243.343509 466.125429,200.773754 C517.396549,149.502634 527.168851,76.2773007 487.945775,37.0542247 C448.588832,-2.16885137 375.229632,7.60345085 324.092379,58.8745707 C281.522624,101.444326 268.135909,159.141069 287.145045,199.970551 C227.574161,259.407567 25.7024935,461.279235 25.7024935,461.279235 L63.586898,499.163639 L247.788102,314.962436 L431.989305,499.163639 L469.87371,461.279235 L285.672506,277.078031 L325.029449,237.721088 L325.029449,237.721088 Z" id="Shape"></path>
        </g>
    </g>
</svg>