<?xml version="1.0" encoding="UTF-8" standalone="no"?>
<svg width="512px" height="512px" viewBox="0 0 512 512" version="1.1" xmlns="http://www.w3.org/2000/svg" xmlns:xlink="http://www.w3.org/1999/xlink">
    <!-- Generator: Sketch 3.8.3 (29802) - http://www.bohemiancoding.com/sketch -->
    <title>thumbs-down</title>
    <desc>Created with Sketch.</desc>
    <defs></defs>
    <g id="Page-1" stroke="none" stroke-width="1" fill="none" fill-rule="evenodd">
        <g id="thumbs-down" fill="#000000">
            <path d="M81.9628164,112.377063 C81.9628164,117.933 79.9366833,122.737101 75.8844172,126.789368 C71.8321511,130.841634 67.0280495,132.867767 61.4721123,132.867767 C55.7122875,132.867767 50.857214,130.841634 46.9068917,126.789368 C42.9565694,122.737101 40.9814082,117.933 40.9814082,112.377063 C40.9814082,106.617238 42.9565694,101.762164 46.9068917,97.811842 C50.857214,93.8615197 55.7122875,91.8863585 61.4721123,91.8863585 C67.0280495,91.8863585 71.8321511,93.8615197 75.8844172,97.811842 C79.9366833,101.762164 81.9628164,106.617238 81.9628164,112.377063 L81.9628164,112.377063 Z M133.151348,276.226238 L133.151348,71.4338834 C133.151348,65.8779462 131.125215,61.0738445 127.072949,57.0215784 C123.020682,52.9693123 118.216581,50.9431793 112.660644,50.9431793 L20.4907041,50.9431793 C14.9347669,50.9431793 10.1306653,52.9693123 6.07839916,57.0215784 C2.02613305,61.0738445 -7.0461403e-16,65.8779462 0,71.4338834 L0,276.226238 C0,281.782175 2.02613305,286.586276 6.07839916,290.638543 C10.1306653,294.690809 14.9347669,296.716942 20.4907041,296.716942 L112.660644,296.716942 C118.216581,296.716942 123.020682,294.690809 127.072949,290.638543 C131.125215,286.586276 133.151348,281.782175 133.151348,276.226238 L133.151348,276.226238 Z M494.414694,228.554767 C506.138231,241.578088 512,257.468578 512,276.226238 C511.796112,292.868563 505.666741,307.268125 493.611887,319.424923 C481.557032,331.581722 467.208442,337.660121 450.566117,337.660121 L361.913238,337.660121 C362.754275,340.641977 363.608054,343.203315 364.474576,345.344135 C365.341099,347.484955 366.513452,349.829662 367.991637,352.378257 C369.469823,354.926852 370.540232,356.851042 371.202867,358.150825 C375.051246,366.05147 377.931158,372.129869 379.842604,376.386023 C381.754051,380.642176 383.780184,386.886234 385.921004,395.118196 C388.061823,403.350158 389.132233,411.505662 389.132233,419.584708 C389.132233,424.707384 389.081261,428.861594 388.979318,432.047338 C388.877374,435.233082 388.342169,440.037184 387.373703,446.459643 C386.405237,452.882103 385.130939,458.221409 383.55081,462.477563 C381.970681,466.733717 379.409343,471.537818 375.866796,476.889868 C372.324249,482.241917 368.055352,486.561786 363.060106,489.849474 C358.06486,493.137161 351.667886,495.91513 343.869185,498.183379 C336.070485,500.451629 327.265089,501.573011 317.452998,501.547525 C311.897061,501.547525 307.092959,499.521392 303.040693,495.469126 C298.784539,491.212972 295.152791,485.873665 292.145449,479.451206 C289.138107,473.028746 287.061002,467.485552 285.914134,462.821623 C284.767266,458.157694 283.429254,451.646034 281.900097,443.286642 C279.988651,434.315588 278.548695,427.867642 277.580228,423.942806 C276.611762,420.01797 274.751288,414.844322 271.998805,408.421862 C269.246323,401.999403 265.945892,396.876727 262.097514,393.053834 C255.063391,386.019712 244.295577,373.225765 229.794072,354.671993 C219.344832,341.011523 208.577018,328.10289 197.490629,315.946091 C186.404241,303.789293 178.299709,297.494263 173.177033,297.061002 C167.850469,296.627741 163.262998,294.435949 159.41462,290.485627 C155.566241,286.535305 153.642052,281.896862 153.642052,276.570298 L153.642052,71.4338834 C153.642052,65.8779462 155.668185,61.1375594 159.720451,57.2127231 C163.772717,53.2878867 168.576819,51.2107818 174.132756,50.9814082 C181.600139,50.7775206 198.459096,46.0881057 224.709624,36.9131636 C241.148062,31.3572264 254.005724,27.1393016 263.28261,24.2593892 C272.559496,21.3794768 285.519102,18.2829339 302.161428,14.9697603 C318.803753,11.6565868 334.159038,10 348.227283,10 L389.514523,10 C417.880385,10.4332612 438.893551,18.754424 452.554021,34.9634884 C464.914707,49.6943677 470.139327,68.9999751 468.22788,92.8803106 C476.5363,100.780955 482.296125,110.809677 485.507355,122.966475 C489.12636,135.989796 489.12636,148.465168 485.507355,160.392593 C495.319445,173.415914 499.906917,188.032106 499.269768,204.241171 C499.269768,211.071405 497.664153,219.175938 494.452923,228.554767 L494.414694,228.554767 Z" id="Shape"></path>
        </g>
    </g>
</svg>