<?xml version="1.0" encoding="UTF-8" standalone="no"?>
<svg width="512px" height="512px" viewBox="0 0 512 512" version="1.1" xmlns="http://www.w3.org/2000/svg" xmlns:xlink="http://www.w3.org/1999/xlink">
    <!-- Generator: Sketch 3.8.3 (29802) - http://www.bohemiancoding.com/sketch -->
    <title>thumbs-up</title>
    <desc>Created with Sketch.</desc>
    <defs></defs>
    <g id="Page-1" stroke="none" stroke-width="1" fill="none" fill-rule="evenodd">
        <g id="thumbs-up" fill="#000000">
            <path d="M81.956697,399.141407 C81.956697,393.585884 79.9307152,388.782141 75.8787517,384.730178 C71.8267881,380.678214 67.0230451,378.652232 61.4675228,378.652232 C55.708128,378.652232 50.853417,380.678214 46.9033896,384.730178 C42.9533622,388.782141 40.9783485,393.585884 40.9783485,399.141407 C40.9783485,404.900801 42.9533622,409.755512 46.9033896,413.70554 C50.853417,417.655567 55.708128,419.630581 61.4675228,419.630581 C67.0230451,419.630581 71.8267881,417.655567 75.8787517,413.70554 C79.9307152,409.755512 81.956697,404.900801 81.956697,399.141407 L81.956697,399.141407 Z M133.141407,235.304465 L133.141407,440.081529 C133.141407,445.637051 131.115425,450.440794 127.063461,454.492758 C123.011498,458.544722 118.207755,460.570703 112.652232,460.570703 L20.4891743,460.570703 C14.9336519,460.570703 10.1299089,458.544722 6.07794535,454.492758 C2.02598178,450.440794 -7.04561424e-16,445.637051 0,440.081529 L0,235.304465 C0,229.748942 2.02598178,224.945199 6.07794535,220.893236 C10.1299089,216.841272 14.9336519,214.81529 20.4891743,214.81529 L112.652232,214.81529 C118.207755,214.81529 123.011498,216.841272 127.063461,220.893236 C131.115425,224.945199 133.141407,229.748942 133.141407,235.304465 L133.141407,235.304465 Z M512,235.304465 C512,253.652979 506.138669,269.542283 494.416007,282.972376 C497.626997,292.350505 499.232492,300.454432 499.232492,307.284157 C499.869593,323.492011 495.282465,338.107113 485.471106,351.129461 C489.089841,363.081479 489.089841,375.555921 485.471106,388.552785 C482.260116,400.708676 476.500722,410.736648 468.192922,418.636703 C470.104226,442.54074 464.879996,461.844906 452.520233,476.549201 C438.860783,492.757055 417.849186,501.077597 389.485441,501.510826 L348.201284,501.510826 C334.13409,501.510826 318.779951,499.854363 302.138868,496.541436 C285.497785,493.22851 272.539147,490.132198 263.262954,487.252501 C253.98676,484.372804 241.130058,480.155194 224.692848,474.599671 C198.444279,465.425414 181.586581,460.73635 174.119755,460.532477 C168.564233,460.328605 163.76049,458.251655 159.708526,454.301628 C155.656563,450.3516 153.630581,445.611567 153.630581,440.081529 L153.630581,234.96043 C153.630581,229.634264 155.554626,224.996167 159.402718,221.04614 C163.250809,217.096113 167.837937,214.904485 173.164103,214.471256 C178.286397,214.038027 186.390324,207.743467 197.475885,195.587577 C208.561445,183.431686 219.328456,170.524016 229.776915,156.864566 C244.277338,138.31218 255.044348,125.519188 262.077945,118.485591 C265.926037,114.637499 269.226221,109.515206 271.978498,103.11871 C274.730775,96.7222139 276.59111,91.5489523 277.559504,87.5989249 C278.527898,83.6488975 279.967747,77.2014335 281.87905,68.2565328 C283.382609,59.9487333 284.720522,53.4375591 285.892788,48.7230103 C287.065054,44.0084615 289.142004,38.4656812 292.123637,32.0946693 C295.105271,25.7236574 298.736748,20.3847494 303.018068,16.0779453 C307.070031,12.0259818 311.873774,10 317.429297,10 C327.240655,10 336.045393,11.1212981 343.843512,13.3638943 C351.641631,15.6064905 358.038127,18.3842517 363.033,21.6971778 C368.027873,25.010104 372.296451,29.3296501 375.838734,34.655816 C379.381016,39.981982 381.942163,44.785725 383.522174,49.0670449 C385.102185,53.3483649 386.376387,58.6872729 387.344781,65.0837689 C388.313175,71.4802648 388.84834,76.2840078 388.950276,79.4949978 C389.052212,82.7059878 389.103181,86.8598875 389.103181,91.956697 C389.103181,100.060624 388.083819,108.164551 386.045095,116.268478 C384.006371,124.372406 381.980389,130.768901 379.967149,135.457966 C377.95391,140.147031 375.023244,146.12304 371.175153,153.385994 C370.538052,154.660196 369.467722,156.584242 367.964163,159.158131 C366.460604,161.732019 365.288338,164.076552 364.447364,166.191728 C363.606391,168.306904 362.752675,170.86805 361.886218,173.875168 L450.532477,173.875168 C467.17356,173.875168 481.572047,179.953113 493.727938,192.109004 C505.883829,204.264895 511.961774,218.663382 511.961774,235.304465 L512,235.304465 Z" id="Shape"></path>
        </g>
    </g>
</svg>