<?xml version="1.0" encoding="UTF-8" standalone="no"?>
<svg width="430px" height="430px" viewBox="0 0 430 430" version="1.1" xmlns="http://www.w3.org/2000/svg" xmlns:xlink="http://www.w3.org/1999/xlink">
    <!-- Generator: Sketch 3.8.3 (29802) - http://www.bohemiancoding.com/sketch -->
    <title>sprite</title>
    <desc>Created with Sketch.</desc>
    <defs>
        <filter x="-50%" y="-50%" width="200%" height="200%" filterUnits="objectBoundingBox" id="filter-1">
            <feOffset dx="0" dy="2" in="SourceAlpha" result="shadowOffsetOuter1"></feOffset>
            <feGaussianBlur stdDeviation="2" in="shadowOffsetOuter1" result="shadowBlurOuter1"></feGaussianBlur>
            <feColorMatrix values="0 0 0 0 0.283915421   0 0 0 0 0.464259141   0 0 0 0 0.458040392  0 0 0 1 0" type="matrix" in="shadowBlurOuter1" result="shadowMatrixOuter1"></feColorMatrix>
            <feMerge>
                <feMergeNode in="shadowMatrixOuter1"></feMergeNode>
                <feMergeNode in="SourceGraphic"></feMergeNode>
            </feMerge>
        </filter>
    </defs>
    <g id="Page-1" stroke="none" stroke-width="1" fill="none" fill-rule="evenodd">
        <g id="sprite">
            <g id="Group-5" filter="url(#filter-1)" transform="translate(13.000000, 12.000000)" fill="#FFFFFF">
                <path d="M49.7187719,21.1412552 L51.564475,21.1412552 L46.3691625,7.04945829 L44.6308813,7.04945829 L39.4355688,21.1412552 L41.2812719,21.1412552 L42.6972875,17.108052 L48.3027563,17.108052 L49.7187719,21.1412552 Z M45.470725,9.18813016 L45.5293188,9.18813016 L47.7851781,15.6139114 L43.2148656,15.6139114 L45.470725,9.18813016 Z M53.1465063,13.5533645 C53.1465063,14.9596145 54.0449438,15.8873489 55.8906469,16.3658645 L57.73635,16.8443802 C58.9375219,17.1568802 59.376975,17.5475052 59.376975,18.2896927 C59.376975,19.2369583 58.4785375,19.8326614 57.0429906,19.8326614 C55.6074438,19.8326614 54.7383031,19.2564895 54.5625219,18.1822708 L52.8535375,18.1822708 C53.0195531,20.0084427 54.6601781,21.2389114 56.9258031,21.2389114 C59.3574438,21.2389114 61.0859594,19.9693802 61.0859594,18.1725052 C61.0859594,16.639302 60.3242406,15.8971145 58.1953344,15.3600052 L56.5937719,14.9596145 C55.3828344,14.6568802 54.8164281,14.1783645 54.8164281,13.4654739 C54.8164281,12.5475052 55.6855688,11.9322708 56.9843969,11.9322708 C58.2734594,11.9322708 59.1328344,12.5475052 59.2402563,13.5338333 L60.8711156,13.5338333 C60.8027563,11.8053177 59.1816625,10.5260208 57.0429906,10.5260208 C54.7578344,10.5260208 53.1465063,11.7760208 53.1465063,13.5533645 L53.1465063,13.5533645 Z M65.0898656,15.3209427 L65.0898656,6.43422391 L63.3906469,6.43422391 L63.3906469,21.1412552 L65.0898656,21.1412552 L65.0898656,17.1471145 L66.0859594,16.2096145 L70.0410375,21.1412552 L72.0136938,21.1412552 L67.2773656,15.1646927 L71.876975,10.6139114 L69.8066625,10.6139114 L65.0898656,15.3209427 Z M81.8867406,14.0416458 C81.6718969,12.1959427 80.0801,10.5162552 77.4726781,10.5162552 C74.5918188,10.5162552 72.6679906,12.6451614 72.6679906,15.8775833 C72.6679906,19.1881302 74.6015844,21.2389114 77.4922094,21.2389114 C79.8945531,21.2389114 81.6230688,19.8228958 81.9062719,17.7721145 L80.23635,17.7721145 C79.9433813,19.0416458 78.9668188,19.7252395 77.501975,19.7252395 C75.6660375,19.7252395 74.3965063,18.2701614 74.3965063,15.8775833 C74.3965063,13.5533645 75.6465063,12.029927 77.4824438,12.029927 C79.064475,12.029927 80.001975,12.9185989 80.2168188,14.0416458 L81.8867406,14.0416458 Z M88.2343969,21.2389114 C91.1933813,21.2389114 93.0879125,19.139302 93.0879125,15.8775833 C93.0879125,12.6060989 91.1933813,10.5162552 88.2343969,10.5162552 C85.2754125,10.5162552 83.3808813,12.6060989 83.3808813,15.8775833 C83.3808813,19.139302 85.2754125,21.2389114 88.2343969,21.2389114 L88.2343969,21.2389114 Z M88.2343969,19.7252395 C86.2812719,19.7252395 85.1093969,18.2896927 85.1093969,15.8775833 C85.1093969,13.4654739 86.2715063,12.029927 88.2343969,12.029927 C90.1972875,12.029927 91.3593969,13.4557083 91.3593969,15.8775833 C91.3593969,18.2896927 90.1972875,19.7252395 88.2343969,19.7252395 L88.2343969,19.7252395 Z M95.3340063,21.1412552 L97.033225,21.1412552 L97.033225,6.43422391 L95.3340063,6.43422391 L95.3340063,21.1412552 Z M99.8945531,21.1412552 L101.593772,21.1412552 L101.593772,6.43422391 L99.8945531,6.43422391 L99.8945531,21.1412552 Z M108.556663,12.0103958 C110.216819,12.0103958 111.349631,13.201802 111.388694,14.9889114 L105.597678,14.9889114 C105.714866,13.2115677 106.906272,12.0103958 108.556663,12.0103958 L108.556663,12.0103958 Z M111.349631,18.1334427 C111.046897,19.1197708 110.021506,19.7447708 108.703147,19.7447708 C106.828147,19.7447708 105.597678,18.4459427 105.597678,16.4439895 L105.597678,16.3463333 L113.156272,16.3463333 L113.156272,15.6822708 C113.156272,12.498677 111.398459,10.5162552 108.585959,10.5162552 C105.714866,10.5162552 103.839866,12.654927 103.839866,15.9166458 C103.839866,19.1783645 105.7051,21.2389114 108.664084,21.2389114 C110.910178,21.2389114 112.73635,19.9400833 113.029319,18.1334427 L111.349631,18.1334427 Z M118.742209,19.764302 C117.414084,19.764302 116.564475,19.1295364 116.564475,18.1529739 C116.564475,17.1373489 117.384788,16.561177 118.966819,16.4635208 L121.720725,16.2877395 L121.720725,17.1373489 C121.720725,18.6510208 120.460959,19.764302 118.742209,19.764302 L118.742209,19.764302 Z M118.380881,21.2389114 C119.855491,21.2389114 121.17385,20.4869583 121.769553,19.3150833 L121.808616,19.3150833 L121.808616,21.1412552 L123.419944,21.1412552 L123.419944,13.9146927 C123.419944,11.8443802 121.818381,10.5162552 119.328147,10.5162552 C117.121116,10.5162552 115.3926,11.873677 115.343772,13.6510208 L116.974631,13.6510208 C117.179709,12.654927 118.087913,12.029927 119.308616,12.029927 C120.86135,12.029927 121.720725,12.7525833 121.720725,14.061177 L121.720725,14.9400833 L118.771506,15.1158645 C116.212913,15.2721145 114.826194,16.3365677 114.826194,18.1432083 C114.826194,20.0084427 116.242209,21.2389114 118.380881,21.2389114 L118.380881,21.2389114 Z M130.294944,19.6275833 C128.459006,19.6275833 127.257834,18.1334427 127.257834,15.8385208 C127.257834,13.5338333 128.459006,12.029927 130.294944,12.029927 C132.140647,12.029927 133.390647,13.5728958 133.390647,15.8385208 C133.390647,18.0943802 132.140647,19.6275833 130.294944,19.6275833 L130.294944,19.6275833 Z M130.324241,24.9010208 C133.283225,24.9010208 135.089866,23.3678177 135.089866,20.8482864 L135.089866,10.6139114 L133.468772,10.6139114 L133.468772,12.3228958 L133.439475,12.3228958 C132.73635,11.170552 131.496116,10.5162552 130.011741,10.5162552 C127.306663,10.5162552 125.519553,12.6256302 125.519553,15.8385208 C125.519553,19.0221145 127.306663,21.1412552 129.972678,21.1412552 C131.447288,21.1412552 132.687522,20.4771927 133.351584,19.3346145 L133.390647,19.3346145 L133.390647,20.9850052 C133.390647,22.4791458 132.238303,23.4264114 130.421897,23.4264114 C129.035178,23.4264114 127.990256,22.8795364 127.73635,22.0006302 L125.968772,22.0006302 C126.212913,23.748677 127.941428,24.9010208 130.324241,24.9010208 L130.324241,24.9010208 Z M146.339866,10.6139114 L144.640647,10.6139114 L144.640647,16.7271927 C144.640647,18.5338333 143.595725,19.7252395 141.867209,19.7252395 C140.216819,19.7252395 139.406272,18.7975052 139.406272,17.0689895 L139.406272,10.6139114 L137.707053,10.6139114 L137.707053,17.3619583 C137.707053,19.7545364 139.044944,21.2389114 141.349631,21.2389114 C142.960959,21.2389114 144.044944,20.6139114 144.699241,19.4029739 L144.738303,19.4029739 L144.738303,21.1412552 L146.339866,21.1412552 L146.339866,10.6139114 Z M153.2051,12.0103958 C154.865256,12.0103958 155.998069,13.201802 156.037131,14.9889114 L150.246116,14.9889114 C150.363303,13.2115677 151.554709,12.0103958 153.2051,12.0103958 L153.2051,12.0103958 Z M155.998069,18.1334427 C155.695334,19.1197708 154.669944,19.7447708 153.351584,19.7447708 C151.476584,19.7447708 150.246116,18.4459427 150.246116,16.4439895 L150.246116,16.3463333 L157.804709,16.3463333 L157.804709,15.6822708 C157.804709,12.498677 156.046897,10.5162552 153.234397,10.5162552 C150.363303,10.5162552 148.488303,12.654927 148.488303,15.9166458 C148.488303,19.1783645 150.353538,21.2389114 153.312522,21.2389114 C155.558616,21.2389114 157.384788,19.9400833 157.677756,18.1334427 L155.998069,18.1334427 Z M159.777366,13.5533645 C159.777366,14.9596145 160.675803,15.8873489 162.521506,16.3658645 L164.367209,16.8443802 C165.568381,17.1568802 166.007834,17.5475052 166.007834,18.2896927 C166.007834,19.2369583 165.109397,19.8326614 163.67385,19.8326614 C162.238303,19.8326614 161.369163,19.2564895 161.193381,18.1822708 L159.484397,18.1822708 C159.650413,20.0084427 161.291038,21.2389114 163.556663,21.2389114 C165.988303,21.2389114 167.716819,19.9693802 167.716819,18.1725052 C167.716819,16.639302 166.9551,15.8971145 164.826194,15.3600052 L163.224631,14.9596145 C162.013694,14.6568802 161.447288,14.1783645 161.447288,13.4654739 C161.447288,12.5475052 162.316428,11.9322708 163.615256,11.9322708 C164.904319,11.9322708 165.763694,12.5475052 165.871116,13.5338333 L167.501975,13.5338333 C167.433616,11.8053177 165.812522,10.5260208 163.67385,10.5260208 C161.388694,10.5260208 159.777366,11.7760208 159.777366,13.5533645 Z M19.4897736,7.25384331 L5.04089864,7.25384331 C2.31233725,7.25384331 0,9.7911479 0,12.9023371 L0,19.890166 C0,23.0027023 2.31392585,25.5565401 5.04089864,25.5565401 L6.10455658,25.5565401 L6.10455658,24.1486403 L4.88364526,24.1486403 L4.88364526,28.299692 C4.88364526,30.4080079 6.92373408,31.5875068 8.31350918,30.111043 L12.8200093,25.1688164 L11.9786051,25.5565401 L19.4897736,25.5565401 C22.2063013,25.5565401 24.4182263,23.0129812 24.4182263,19.890166 L24.4182263,12.9023371 C24.4182263,9.78098525 22.207726,7.25384331 19.4897736,7.25384331 Z M19.4897736,10.0696428 C20.8638401,10.0696428 21.9764037,11.3415749 21.9764037,12.9023371 L21.9764037,19.890166 C21.9764037,21.4560901 20.8592483,22.7407406 19.4897736,22.7407406 L11.9786051,22.7407406 C11.6653918,22.7407406 11.3641579,22.8795508 11.1372009,23.1284643 L6.64485768,28.0554095 C6.89339269,27.7911304 7.3254679,28.0409393 7.3254679,28.299692 L7.3254679,24.1486403 C7.3254679,23.3710788 6.77884728,22.7407406 6.10455658,22.7407406 L5.04089864,22.7407406 C3.63913569,22.7407406 2.44182263,21.419288 2.44182263,19.890166 L2.44182263,12.9023371 C2.44182263,11.3784039 3.63454387,10.0696428 5.04089864,10.0696428 L19.4897736,10.0696428 Z M26.2947689,17.104324 C28.8091394,16.7767433 30.7975317,14.3220002 30.7975317,11.4060213 L30.7975317,5.95125445 C30.7975317,2.79918413 28.4069949,0.214344545 25.6418674,0.214344545 L13.6127165,0.214344545 C11.0589529,0.214344545 9.09488267,2.44743496 8.85160704,5.40641914 L11.2825289,5.67218684 C11.4107597,4.1125037 12.3627276,3.03014405 13.6127165,3.03014405 L25.6418674,3.03014405 C27.0922878,3.03014405 28.3557091,4.39625613 28.3557091,5.95125445 L28.3557091,11.4060213 C28.3557091,12.8616078 27.3228877,14.1366636 26.0206359,14.3063254 L26.2947689,17.104324 Z" id="Combined-Shape"></path>
            </g>
            <g id="Group-5" transform="translate(13.000000, 59.000000)" fill="#717171">
                <path d="M47.6006078,20.1412552 L49.3540258,20.1412552 L44.4184789,6.75404813 L42.7671117,6.75404813 L37.8315649,20.1412552 L39.5849828,20.1412552 L40.9301977,16.3097122 L46.255393,16.3097122 L47.6006078,20.1412552 Z M43.5185766,8.91566922 L43.6670141,8.91566922 L45.7636938,14.8902786 L41.4218969,14.8902786 L43.5185766,8.91566922 Z M50.5971899,12.877095 C50.5971899,14.3243606 51.4507055,15.1314895 53.3247289,15.5860794 L55.0410375,16.0035598 C56.107932,16.2633255 56.6274633,16.7271927 56.6274633,17.4137161 C56.6274633,18.3321731 55.6626195,18.9723098 54.3174047,18.9723098 C53.0371313,18.9723098 52.2392797,18.4342239 51.9702367,17.5899856 L50.3281469,17.5899856 C50.5044164,19.2506302 52.0351781,20.3175247 54.2617406,20.3175247 C56.5346899,20.3175247 58.2695531,19.083638 58.2695531,17.2931106 C58.2695531,15.8551223 57.3603735,15.0387161 55.4770727,14.5841263 L53.9370336,14.2130325 C52.758811,13.9254348 52.2021703,13.498677 52.2021703,12.8121536 C52.2021703,11.9215286 53.1299047,11.3185013 54.3174047,11.3185013 C55.5234594,11.3185013 56.3027563,11.8473098 56.5161352,12.6451614 L58.0932836,12.6451614 C57.8799047,11.0030716 56.4233617,9.96400907 54.326682,9.96400907 C52.2021703,9.96400907 50.5971899,11.2164505 50.5971899,12.877095 L50.5971899,12.877095 Z M62.1289281,14.5099075 L61.9804906,14.5099075 L61.9804906,6.16957547 L60.3847875,6.16957547 L60.3847875,20.1412552 L61.9804906,20.1412552 L61.9804906,16.3468216 L62.936057,15.4561966 L66.6841039,20.1412552 L68.7158422,20.1412552 L64.123557,14.4264114 L68.4282445,10.1402786 L66.470725,10.1402786 L62.1289281,14.5099075 Z M77.9375219,13.201802 C77.6592016,11.420552 76.1748266,9.96400907 73.7441625,9.96400907 C70.9424047,9.96400907 69.1611547,11.98647 69.1611547,15.1036575 C69.1611547,18.2857864 70.951682,20.3175247 73.7534399,20.3175247 C76.1562719,20.3175247 77.6499242,18.9630325 77.9375219,17.1261184 L76.3232641,17.1261184 C76.0263891,18.2579544 75.0893774,18.8795364 73.7441625,18.8795364 C71.9629125,18.8795364 70.8125219,17.4137161 70.8125219,15.1036575 C70.8125219,12.8399856 71.9443578,11.4019973 73.7441625,11.4019973 C75.1821508,11.4019973 76.0634985,12.2091263 76.3232641,13.201802 L77.9375219,13.201802 Z M83.9214086,18.8795364 C82.0288305,18.8795364 80.961936,17.5064895 80.961936,15.1407669 C80.961936,12.7657669 82.0288305,11.4019973 83.9214086,11.4019973 C85.8139867,11.4019973 86.8808813,12.7657669 86.8808813,15.1407669 C86.8808813,17.5064895 85.8139867,18.8795364 83.9214086,18.8795364 L83.9214086,18.8795364 Z M83.9214086,20.3175247 C86.7695531,20.3175247 88.5322485,18.3507278 88.5322485,15.1407669 C88.5322485,11.9215286 86.7695531,9.96400907 83.9214086,9.96400907 C81.0732641,9.96400907 79.3105688,11.9215286 79.3105688,15.1407669 C79.3105688,18.3507278 81.0732641,20.3175247 83.9214086,20.3175247 L83.9214086,20.3175247 Z M90.6474828,20.1412552 L92.243186,20.1412552 L92.243186,6.16957547 L90.6474828,6.16957547 L90.6474828,20.1412552 Z M94.9521703,20.1412552 L96.5478735,20.1412552 L96.5478735,6.16957547 L94.9521703,6.16957547 L94.9521703,20.1412552 Z M103.153342,11.3741653 C104.739768,11.3741653 105.797385,12.5431106 105.834495,14.3150833 L100.323752,14.3150833 C100.444358,12.5431106 101.557639,11.3741653 103.153342,11.3741653 L103.153342,11.3741653 Z M105.788108,17.5528763 C105.370627,18.4342239 104.498557,18.9073684 103.209006,18.9073684 C101.511252,18.9073684 100.407248,17.654927 100.323752,15.6788528 L100.323752,15.6046341 L107.513694,15.6046341 L107.513694,14.9923294 C107.513694,11.8844192 105.871604,9.96400907 103.171897,9.96400907 C100.425803,9.96400907 98.6631078,12.0050247 98.6631078,15.1500442 C98.6631078,18.3136184 100.397971,20.3175247 103.171897,20.3175247 C105.36135,20.3175247 106.901389,19.2691848 107.383811,17.5528763 L105.788108,17.5528763 Z M112.616233,18.9166458 C111.456565,18.9166458 110.593772,18.3228958 110.593772,17.302388 C110.593772,16.3004348 111.261741,15.7716263 112.783225,15.6695755 L115.473655,15.4933059 L115.473655,16.411763 C115.473655,17.8404739 114.258323,18.9166458 112.616233,18.9166458 L112.616233,18.9166458 Z M112.319358,20.3175247 C113.655295,20.3175247 114.750022,19.733052 115.399436,18.6661575 L115.547873,18.6661575 L115.547873,20.1412552 L117.069358,20.1412552 L117.069358,13.2945755 C117.069358,11.2164505 115.705588,9.96400907 113.265647,9.96400907 C111.131858,9.96400907 109.554709,11.0216263 109.34133,12.6266067 L110.955588,12.6266067 C111.178245,11.8380325 112.013205,11.3834427 113.209983,11.3834427 C114.703635,11.3834427 115.473655,12.0606888 115.473655,13.2945755 L115.473655,14.2037552 L112.588401,14.3800247 C110.259788,14.5191848 108.942405,15.54897 108.942405,17.3394973 C108.942405,19.1671341 110.380393,20.3175247 112.319358,20.3175247 L112.319358,20.3175247 Z M126.550803,14.9923294 C126.550803,17.1725052 125.437522,18.5826614 123.582053,18.5826614 C121.726584,18.5826614 120.687522,17.1725052 120.687522,14.9923294 C120.687522,12.8121536 121.726584,11.4019973 123.582053,11.4019973 C125.428245,11.4019973 126.550803,12.8121536 126.550803,14.9923294 L126.550803,14.9923294 Z M123.656272,23.9820755 C126.383811,23.9820755 128.109397,22.5533645 128.109397,20.3175247 L128.109397,10.1402786 L126.587913,10.1402786 L126.587913,11.7267044 L126.439475,11.7267044 C125.86428,10.6505325 124.630393,9.96400907 123.229514,9.96400907 C120.65969,9.96400907 119.036155,11.9957473 119.036155,14.9923294 C119.036155,17.9889114 120.641135,19.9928177 123.229514,19.9928177 C124.602561,19.9928177 125.734397,19.3712356 126.365256,18.2672317 L126.513694,18.2672317 L126.513694,20.2340286 C126.513694,21.7091263 125.446799,22.5904739 123.656272,22.5904739 C122.218284,22.5904739 121.327659,22.0616653 121.151389,21.2452591 L119.462913,21.2452591 C119.704123,22.8966263 121.244163,23.9820755 123.656272,23.9820755 L123.656272,23.9820755 Z M138.722678,10.1402786 L137.126975,10.1402786 L137.126975,16.0592239 C137.126975,17.8126419 136.162131,18.8609817 134.399436,18.8609817 C132.803733,18.8609817 132.135764,18.0260208 132.135764,16.2262161 L132.135764,10.1402786 L130.540061,10.1402786 L130.540061,16.6158645 C130.540061,18.9815872 131.709006,20.3175247 133.954123,20.3175247 C135.484885,20.3175247 136.55178,19.6866653 137.052756,18.5733841 L137.201194,18.5733841 L137.201194,20.1412552 L138.722678,20.1412552 L138.722678,10.1402786 Z M145.235373,11.3741653 C146.821799,11.3741653 147.879416,12.5431106 147.916526,14.3150833 L142.405784,14.3150833 C142.526389,12.5431106 143.63967,11.3741653 145.235373,11.3741653 L145.235373,11.3741653 Z M147.870139,17.5528763 C147.452659,18.4342239 146.580588,18.9073684 145.291038,18.9073684 C143.593284,18.9073684 142.48928,17.654927 142.405784,15.6788528 L142.405784,15.6046341 L149.595725,15.6046341 L149.595725,14.9923294 C149.595725,11.8844192 147.953635,9.96400907 145.253928,9.96400907 C142.507834,9.96400907 140.745139,12.0050247 140.745139,15.1500442 C140.745139,18.3136184 142.480002,20.3175247 145.253928,20.3175247 C147.443381,20.3175247 148.98342,19.2691848 149.465842,17.5528763 L147.870139,17.5528763 Z M151.386252,12.877095 C151.386252,14.3243606 152.239768,15.1314895 154.113791,15.5860794 L155.8301,16.0035598 C156.896995,16.2633255 157.416526,16.7271927 157.416526,17.4137161 C157.416526,18.3321731 156.451682,18.9723098 155.106467,18.9723098 C153.826194,18.9723098 153.028342,18.4342239 152.759299,17.5899856 L151.117209,17.5899856 C151.293479,19.2506302 152.824241,20.3175247 155.050803,20.3175247 C157.323752,20.3175247 159.058616,19.083638 159.058616,17.2931106 C159.058616,15.8551223 158.149436,15.0387161 156.266135,14.5841263 L154.726096,14.2130325 C153.547873,13.9254348 152.991233,13.498677 152.991233,12.8121536 C152.991233,11.9215286 153.918967,11.3185013 155.106467,11.3185013 C156.312522,11.3185013 157.091819,11.8473098 157.305198,12.6451614 L158.882346,12.6451614 C158.668967,11.0030716 157.212424,9.96400907 155.115745,9.96400907 C152.991233,9.96400907 151.386252,11.2164505 151.386252,12.877095 Z M19.4897736,7.25384331 L5.04089864,7.25384331 C2.31233725,7.25384331 0,9.7911479 0,12.9023371 L0,19.890166 C0,23.0027023 2.31392585,25.5565401 5.04089864,25.5565401 L6.10455658,25.5565401 L6.10455658,24.1486403 L4.88364526,24.1486403 L4.88364526,28.299692 C4.88364526,30.4080079 6.92373408,31.5875068 8.31350918,30.111043 L12.8200093,25.1688164 L11.9786051,25.5565401 L19.4897736,25.5565401 C22.2063013,25.5565401 24.4182263,23.0129812 24.4182263,19.890166 L24.4182263,12.9023371 C24.4182263,9.78098525 22.207726,7.25384331 19.4897736,7.25384331 Z M19.4897736,10.0696428 C20.8638401,10.0696428 21.9764037,11.3415749 21.9764037,12.9023371 L21.9764037,19.890166 C21.9764037,21.4560901 20.8592483,22.7407406 19.4897736,22.7407406 L11.9786051,22.7407406 C11.6653918,22.7407406 11.3641579,22.8795508 11.1372009,23.1284643 L6.64485768,28.0554095 C6.89339269,27.7911304 7.3254679,28.0409393 7.3254679,28.299692 L7.3254679,24.1486403 C7.3254679,23.3710788 6.77884728,22.7407406 6.10455658,22.7407406 L5.04089864,22.7407406 C3.63913569,22.7407406 2.44182263,21.419288 2.44182263,19.890166 L2.44182263,12.9023371 C2.44182263,11.3784039 3.63454387,10.0696428 5.04089864,10.0696428 L19.4897736,10.0696428 Z M26.2947689,17.104324 C28.8091394,16.7767433 30.7975317,14.3220002 30.7975317,11.4060213 L30.7975317,5.95125445 C30.7975317,2.79918413 28.4069949,0.214344545 25.6418674,0.214344545 L13.6127165,0.214344545 C11.0589529,0.214344545 9.09488267,2.44743496 8.85160704,5.40641914 L11.2825289,5.67218684 C11.4107597,4.1125037 12.3627276,3.03014405 13.6127165,3.03014405 L25.6418674,3.03014405 C27.0922878,3.03014405 28.3557091,4.39625613 28.3557091,5.95125445 L28.3557091,11.4060213 C28.3557091,12.8616078 27.3228877,14.1366636 26.0206359,14.3063254 L26.2947689,17.104324 Z" id="Combined-Shape"></path>
            </g>
            <g id="gift-green" transform="translate(26.000000, 121.000000)" stroke="#70ABA9">
                <g id="Group-3" transform="translate(1.000000, 1.000000)">
                    <polyline id="Shape" points="1.05882516 8.25698636 1.05882516 13.4394531 12.1025251 13.4394531 12.1025251 8.25698636"></polyline>
                    <polyline id="Shape" points="7.63372672 7.14652751 12.7979267 7.14652751 12.7979267 4.28991319 0.363815023 4.28991319 0.363815023 7.14652751 5.58823223 7.14652751"></polyline>
                    <path d="M6.57512966,4.28991319 C6.57512966,4.28991319 0.672664922,2.29856537 3.107125,0.614842332 C5.39642431,-0.968540804 6.57512966,4.28991319 6.57512966,4.28991319 L6.57512966,4.28991319 Z" id="Shape"></path>
                    <path d="M6.57512966,4.28991319 C6.57512966,4.28991319 7.46155628,-0.205567009 9.5418241,1.07880667 C11.4972863,2.28621673 6.57512966,4.28991319 6.57512966,4.28991319 L6.57512966,4.28991319 Z" id="Shape"></path>
                    <rect id="Rectangle-path" x="5.58823223" y="4.28991319" width="2.04549448" height="9.1494825"></rect>
                </g>
            </g>
            <g id="bubbles-green" transform="translate(9.000000, 121.000000)" stroke="#70ABA9">
                <g id="Group-2" transform="translate(1.000000, 2.000000)">
                    <path d="M1.81626419,3.74514803 C0.843870896,3.74514803 0,4.52653491 0,5.49044821 L0,8.36642708 C0,9.33034037 0.843870896,10.1190863 1.81626419,10.1190863 L2.32199462,10.1190863 L2.32199462,11.8275335 C2.32199462,12.203422 2.70094414,12.4025206 2.97894495,12.1468678 L5.11488975,10.1190863 L8.68617553,10.1190863 C9.65856883,10.1190863 10.4489758,9.33028243 10.4489758,8.36642708 L10.4489758,5.49044821 C10.4489758,4.52653491 9.65856883,3.74514803 8.68617553,3.74514803 L1.81626419,3.74514803 Z" id="Shape"></path>
                    <path d="M11.7258987,6.64407308 C12.6163256,6.54365458 13.3514691,5.79037097 13.3514691,4.87460988 L13.3514691,2.62959295 C13.3514691,1.64563073 12.4664408,0.847903384 11.480638,0.847903384 L5.76121696,0.847903384 C4.83305766,0.847903384 4.16124656,1.55610587 4.07539081,2.4600462" id="Shape"></path>
                </g>
            </g>
            <g id="gift" transform="translate(26.000000, 104.000000)" stroke="#717171">
                <g id="Group-3" transform="translate(1.000000, 1.000000)">
                    <polyline id="Shape" points="1.05882516 8.25698636 1.05882516 13.4394531 12.1025251 13.4394531 12.1025251 8.25698636"></polyline>
                    <polyline id="Shape" points="7.63372672 7.14652751 12.7979267 7.14652751 12.7979267 4.28991319 0.363815023 4.28991319 0.363815023 7.14652751 5.58823223 7.14652751"></polyline>
                    <path d="M6.57512966,4.28991319 C6.57512966,4.28991319 0.672664922,2.29856537 3.107125,0.614842332 C5.39642431,-0.968540804 6.57512966,4.28991319 6.57512966,4.28991319 L6.57512966,4.28991319 Z" id="Shape"></path>
                    <path d="M6.57512966,4.28991319 C6.57512966,4.28991319 7.46155628,-0.205567009 9.5418241,1.07880667 C11.4972863,2.28621673 6.57512966,4.28991319 6.57512966,4.28991319 L6.57512966,4.28991319 Z" id="Shape"></path>
                    <rect id="Rectangle-path" x="5.58823223" y="4.28991319" width="2.04549448" height="9.1494825"></rect>
                </g>
            </g>
            <g id="bubbles" transform="translate(9.000000, 104.000000)" stroke="#717171">
                <g id="Group-2" transform="translate(1.000000, 2.000000)">
                    <path d="M1.81626419,3.74514803 C0.843870896,3.74514803 0,4.52653491 0,5.49044821 L0,8.36642708 C0,9.33034037 0.843870896,10.1190863 1.81626419,10.1190863 L2.32199462,10.1190863 L2.32199462,11.8275335 C2.32199462,12.203422 2.70094414,12.4025206 2.97894495,12.1468678 L5.11488975,10.1190863 L8.68617553,10.1190863 C9.65856883,10.1190863 10.4489758,9.33028243 10.4489758,8.36642708 L10.4489758,5.49044821 C10.4489758,4.52653491 9.65856883,3.74514803 8.68617553,3.74514803 L1.81626419,3.74514803 Z" id="Shape"></path>
                    <path d="M11.7258987,6.64407308 C12.6163256,6.54365458 13.3514691,5.79037097 13.3514691,4.87460988 L13.3514691,2.62959295 C13.3514691,1.64563073 12.4664408,0.847903384 11.480638,0.847903384 L5.76121696,0.847903384 C4.83305766,0.847903384 4.16124656,1.55610587 4.07539081,2.4600462" id="Shape"></path>
                </g>
            </g>
            <path d="M9,144.675 L12,144.675 L12,151 L9,151 L9,144.675 Z M12.6307199,145.185027 C12.6307199,145.185027 14.2767857,143.687566 14.5419922,142.606365 C14.8071987,141.525164 14.4845145,140.224419 15.101981,140.024346 C15.7194475,139.824273 17.0365513,140.888958 16.8023158,142.056634 C16.5680804,143.224309 16.0404576,144.572722 16.0404576,144.572722 L20.1946832,144.572722 C20.1946832,144.572722 20.9409877,144.572723 20.9409877,145.352068 C20.9409877,146.131414 20.1946832,146.219647 20.1946832,146.219647 C20.1946832,146.219647 20.9409877,146.219647 20.9409877,146.961517 C20.9409877,147.703386 20.1946832,147.843747 20.1946832,147.843747 C20.1946832,147.843747 20.3888114,147.955706 20.3888114,148.680267 C20.3888114,149.404827 19.1928013,149.404827 19.1928013,149.404827 C19.1928013,149.404827 19.7419085,149.674725 19.7419085,150.04815 C19.7419085,150.421575 19.1928013,150.841311 19.1928013,150.841311 C19.1928013,150.841311 16.4871652,150.923235 14.4578683,150.421575 C12.4285714,149.919915 12.4285714,149.57791 12.4285714,149.57791 L12.453404,145.352068 L12.6307199,145.185027 Z" id="Combined-Shape" fill="#276BAF"></path>
            <path d="M23,144.675 L26,144.675 L26,151 L23,151 L23,144.675 Z M26.6307199,145.185027 C26.6307199,145.185027 28.2767857,143.687566 28.5419922,142.606365 C28.8071987,141.525164 28.4845145,140.224419 29.101981,140.024346 C29.7194475,139.824273 31.0365513,140.888958 30.8023158,142.056634 C30.5680804,143.224309 30.0404576,144.572722 30.0404576,144.572722 L34.1946832,144.572722 C34.1946832,144.572722 34.9409877,144.572723 34.9409877,145.352068 C34.9409877,146.131414 34.1946832,146.219647 34.1946832,146.219647 C34.1946832,146.219647 34.9409877,146.219647 34.9409877,146.961517 C34.9409877,147.703386 34.1946832,147.843747 34.1946832,147.843747 C34.1946832,147.843747 34.3888114,147.955706 34.3888114,148.680267 C34.3888114,149.404827 33.1928013,149.404827 33.1928013,149.404827 C33.1928013,149.404827 33.7419085,149.674725 33.7419085,150.04815 C33.7419085,150.421575 33.1928013,150.841311 33.1928013,150.841311 C33.1928013,150.841311 30.4871652,150.923235 28.4578683,150.421575 C26.4285714,149.919915 26.4285714,149.57791 26.4285714,149.57791 L26.453404,145.352068 L26.6307199,145.185027 Z" id="Combined-Shape" fill="#FA6252" transform="translate(28.970494, 145.500000) scale(1, -1) translate(-28.970494, -145.500000) "></path>
        </g>
    </g>
</svg>