<svg xmlns="http://www.w3.org/2000/svg" width="430" height="430" viewBox="0 0 430 430"><defs><filter id="a" width="200%" height="200%" x="-50%" y="-50%" filterUnits="objectBoundingBox"><feOffset dy="2" in="SourceAlpha" result="shadowOffsetOuter1"/><feGaussianBlur stdDeviation="2" in="shadowOffsetOuter1" result="shadowBlurOuter1"/><feColorMatrix values="0 0 0 0 0.283915421 0 0 0 0 0.464259141 0 0 0 0 0.458040392 0 0 0 1 0" in="shadowBlurOuter1" result="shadowMatrixOuter1"/><feMerge><feMergeNode in="shadowMatrixOuter1"/><feMergeNode in="SourceGraphic"/></feMerge></filter></defs><g fill="none" fill-rule="evenodd"><path fill="#FFF" d="M49.72 21.14h1.844L46.37 7.05h-1.74l-5.194 14.09h1.845l1.417-4.032h5.606l1.416 4.033zM45.47 9.19h.06l2.255 6.426h-4.57l2.256-6.426zm7.677 4.365c0 1.407.898 2.334 2.744 2.813l1.846.478c1.202.313 1.64.704 1.64 1.446 0 .947-.897 1.543-2.333 1.543-1.436 0-2.305-.577-2.48-1.65h-1.71c.167 1.825 1.807 3.056 4.073 3.056 2.43 0 4.16-1.27 4.16-3.067 0-1.534-.762-2.276-2.89-2.813l-1.602-.4c-1.21-.303-1.778-.782-1.778-1.495 0-.917.87-1.533 2.168-1.533 1.29 0 2.15.616 2.256 1.602h1.63c-.067-1.73-1.688-3.008-3.827-3.008-2.285 0-3.896 1.25-3.896 3.027zM65.09 15.32V6.435h-1.7V21.14h1.7v-3.993l.996-.937 3.955 4.93h1.974l-4.737-5.975 4.6-4.55h-2.07L65.09 15.32zm16.797-1.278c-.215-1.846-1.807-3.526-4.414-3.526-2.88 0-4.805 2.13-4.805 5.362 0 3.31 1.934 5.36 4.824 5.36 2.403 0 4.13-1.415 4.414-3.466h-1.67c-.293 1.27-1.27 1.953-2.734 1.953-1.836 0-3.105-1.455-3.105-3.847 0-2.325 1.25-3.848 3.085-3.848 1.582 0 2.52.89 2.735 2.012h1.67zm6.347 7.197c2.96 0 4.854-2.1 4.854-5.362 0-3.272-1.895-5.362-4.854-5.362-2.96 0-4.853 2.09-4.853 5.362 0 3.26 1.895 5.36 4.854 5.36zm0-1.515c-1.953 0-3.125-1.435-3.125-3.847 0-2.413 1.162-3.848 3.124-3.848 1.963 0 3.125 1.426 3.125 3.848 0 2.412-1.163 3.847-3.126 3.847zm7.1 1.416h1.7V6.435h-1.7V21.14zm4.56 0h1.7V6.435h-1.7V21.14zm8.663-9.13c1.66 0 2.793 1.192 2.832 2.98h-5.792c.117-1.778 1.308-2.98 2.96-2.98zm2.793 6.123c-.303.987-1.328 1.612-2.647 1.612-1.875 0-3.105-1.3-3.105-3.3v-.1h7.558v-.663c0-3.183-1.758-5.166-4.57-5.166-2.87 0-4.746 2.14-4.746 5.4 0 3.262 1.865 5.323 4.824 5.323 2.246 0 4.072-1.3 4.365-3.107h-1.68zm7.392 1.63c-1.328 0-2.178-.633-2.178-1.61 0-1.016.82-1.592 2.403-1.69l2.754-.175v.85c0 1.513-1.26 2.626-2.978 2.626zm-.36 1.476c1.473 0 2.792-.753 3.388-1.925h.04v1.826h1.61v-7.225c0-2.07-1.602-3.4-4.092-3.4-2.207 0-3.935 1.36-3.984 3.136h1.63c.206-.995 1.114-1.62 2.335-1.62 1.55 0 2.41.723 2.41 2.03v.88l-2.948.176c-2.56.156-3.946 1.22-3.946 3.027 0 1.865 1.416 3.096 3.555 3.096zm11.913-1.612c-1.836 0-3.037-1.495-3.037-3.79 0-2.304 1.2-3.808 3.037-3.808 1.846 0 3.096 1.543 3.096 3.81 0 2.254-1.25 3.788-3.095 3.788zm.03 5.273c2.958 0 4.765-1.532 4.765-4.052V10.614h-1.62v1.71h-.03c-.704-1.153-1.944-1.808-3.428-1.808-2.705 0-4.492 2.11-4.492 5.323 0 3.182 1.787 5.3 4.453 5.3 1.474 0 2.715-.663 3.38-1.805h.038v1.65c0 1.494-1.152 2.44-2.968 2.44-1.387 0-2.432-.545-2.686-1.424h-1.767c.243 1.75 1.97 2.9 4.354 2.9zm16.015-14.286h-1.7v6.113c0 1.807-1.044 2.998-2.773 2.998-1.65 0-2.46-.927-2.46-2.656v-6.456h-1.7v6.748c0 2.393 1.338 3.877 3.643 3.877 1.61 0 2.695-.626 3.35-1.837h.038v1.738h1.602V10.615zm6.865 1.396c1.66 0 2.793 1.192 2.832 2.98h-5.79c.116-1.778 1.308-2.98 2.958-2.98zm2.793 6.123c-.303.987-1.328 1.612-2.646 1.612-1.875 0-3.106-1.3-3.106-3.3v-.1h7.56v-.663c0-3.183-1.76-5.166-4.572-5.166-2.87 0-4.746 2.14-4.746 5.4 0 3.262 1.866 5.323 4.825 5.323 2.246 0 4.072-1.3 4.365-3.107h-1.68zm3.78-4.58c0 1.407.898 2.334 2.744 2.813l1.845.478c1.2.313 1.64.704 1.64 1.446 0 .947-.898 1.543-2.333 1.543-1.436 0-2.305-.577-2.48-1.65h-1.71c.166 1.825 1.807 3.056 4.073 3.056 2.43 0 4.16-1.27 4.16-3.067 0-1.534-.762-2.276-2.89-2.813l-1.602-.4c-1.21-.303-1.778-.782-1.778-1.495 0-.917.87-1.533 2.168-1.533 1.29 0 2.15.616 2.256 1.602h1.632c-.068-1.73-1.69-3.008-3.828-3.008-2.285 0-3.897 1.25-3.897 3.027zM19.49 7.253H5.04C2.313 7.254 0 9.792 0 12.904v6.987c0 3.113 2.314 5.667 5.04 5.667h1.065V24.15h-1.22v4.15c0 2.108 2.04 3.288 3.43 1.81l4.505-4.94-.84.387h7.51c2.716 0 4.928-2.544 4.928-5.667v-6.988c0-3.12-2.21-5.648-4.928-5.648zm0 2.817c1.374 0 2.486 1.272 2.486 2.832v6.988c0 1.566-1.117 2.85-2.486 2.85h-7.51c-.315 0-.616.14-.843.388l-4.492 4.927c.248-.264.68-.014.68.245v-4.15c0-.78-.546-1.41-1.22-1.41H5.04c-1.4 0-2.598-1.32-2.598-2.85v-6.988c0-1.524 1.193-2.832 2.6-2.832H19.49zm6.805 7.034c2.514-.327 4.503-2.782 4.503-5.698V5.95c0-3.15-2.39-5.736-5.156-5.736h-12.03c-2.553 0-4.517 2.233-4.76 5.192l2.43.266c.13-1.56 1.08-2.642 2.33-2.642h12.03c1.45 0 2.714 1.366 2.714 2.92v5.456c0 1.456-1.033 2.73-2.335 2.9l.275 2.798z" filter="url(#a)" transform="translate(13 12)"/><path fill="#717171" d="M60.6 79.14h1.754l-4.936-13.386h-1.65L50.83 79.14h1.753l1.345-3.83h5.325l1.346 3.83zm-4.08-11.224h.147l2.097 5.974h-4.342l2.097-5.974zm7.077 3.96c0 1.448.854 2.255 2.728 2.71l1.716.418c1.068.26 1.587.723 1.587 1.41 0 .918-.964 1.558-2.31 1.558-1.28 0-2.078-.538-2.347-1.382h-1.642c.176 1.66 1.707 2.728 3.934 2.728 2.273 0 4.008-1.234 4.008-3.025 0-1.438-.91-2.254-2.793-2.71l-1.54-.37c-1.178-.288-1.735-.714-1.735-1.4 0-.89.928-1.494 2.115-1.494 1.206 0 1.986.527 2.2 1.325h1.576c-.213-1.642-1.67-2.68-3.766-2.68-2.125 0-3.73 1.25-3.73 2.912zM75.13 73.51h-.15v-8.34h-1.595v13.97h1.595v-3.793l.956-.89 3.748 4.684h2.032l-4.592-5.714 4.304-4.286H79.47l-4.34 4.37zm15.808-1.308c-.28-1.78-1.763-3.238-4.194-3.238-2.802 0-4.583 2.022-4.583 5.14 0 3.182 1.792 5.214 4.593 5.214 2.403 0 3.897-1.355 4.185-3.192h-1.615c-.297 1.132-1.234 1.754-2.58 1.754-1.78 0-2.93-1.466-2.93-3.776 0-2.264 1.13-3.702 2.93-3.702 1.44 0 2.32.807 2.58 1.8h1.615zm5.983 5.678c-1.89 0-2.958-1.374-2.958-3.74 0-2.374 1.067-3.738 2.96-3.738 1.892 0 2.96 1.364 2.96 3.74 0 2.364-1.068 3.738-2.96 3.738zm0 1.438c2.85 0 4.612-1.967 4.612-5.177 0-3.218-1.762-5.176-4.61-5.176-2.85 0-4.61 1.958-4.61 5.177 0 3.21 1.76 5.178 4.61 5.178zm6.727-.177h1.596V65.17h-1.596v13.97zm4.305 0h1.596V65.17h-1.596v13.97zm8.2-8.766c1.588 0 2.645 1.17 2.682 2.94h-5.51c.12-1.77 1.234-2.94 2.83-2.94zm2.636 6.18c-.417.88-1.29 1.353-2.58 1.353-1.697 0-2.8-1.252-2.884-3.228v-.075h7.19v-.613c0-3.108-1.642-5.028-4.342-5.028-2.746 0-4.51 2.04-4.51 5.186 0 3.164 1.736 5.168 4.51 5.168 2.19 0 3.73-1.05 4.212-2.765h-1.596zm6.828 1.363c-1.16 0-2.022-.594-2.022-1.615 0-1.002.668-1.53 2.19-1.632l2.69-.177v.92c0 1.427-1.216 2.504-2.858 2.504zm-.297 1.4c1.335 0 2.43-.584 3.08-1.65h.148v1.474h1.52v-6.845c0-2.08-1.362-3.33-3.802-3.33-2.134 0-3.71 1.057-3.925 2.662h1.616c.222-.79 1.057-1.244 2.254-1.244 1.494 0 2.264.678 2.264 1.912v.91l-2.886.175c-2.328.14-3.646 1.17-3.646 2.96 0 1.827 1.438 2.978 3.377 2.978zm14.23-5.325c0 2.18-1.112 3.59-2.968 3.59-1.855 0-2.894-1.41-2.894-3.59 0-2.18 1.04-3.59 2.894-3.59 1.846 0 2.97 1.41 2.97 3.59zm-2.894 8.99c2.728 0 4.453-1.43 4.453-3.664V69.14h-1.522v1.587h-.15c-.574-1.076-1.808-1.763-3.208-1.763-2.57 0-4.194 2.032-4.194 5.028 0 2.997 1.605 5 4.194 5 1.373 0 2.504-.62 3.135-1.725h.15v1.967c0 1.475-1.068 2.356-2.86 2.356-1.437 0-2.327-.528-2.504-1.345h-1.687c.24 1.652 1.78 2.737 4.193 2.737zm15.067-13.842h-1.596v5.92c0 1.753-.965 2.8-2.728 2.8-1.596 0-2.264-.834-2.264-2.634V69.14h-1.596v6.476c0 2.366 1.17 3.702 3.414 3.702 1.53 0 2.598-.63 3.1-1.745h.147v1.568h1.523v-10zm6.512 1.234c1.587 0 2.644 1.17 2.682 2.94h-5.51c.12-1.77 1.233-2.94 2.828-2.94zm2.635 6.18c-.417.88-1.29 1.353-2.58 1.353-1.697 0-2.8-1.252-2.884-3.228v-.075h7.19v-.613c0-3.108-1.642-5.028-4.342-5.028-2.746 0-4.51 2.04-4.51 5.186 0 3.164 1.736 5.168 4.51 5.168 2.19 0 3.73-1.05 4.212-2.765h-1.596zm3.516-4.677c0 1.447.854 2.254 2.728 2.71l1.716.417c1.067.26 1.587.723 1.587 1.41 0 .918-.965 1.558-2.31 1.558-1.28 0-2.08-.538-2.348-1.382h-1.643c.176 1.66 1.707 2.728 3.934 2.728 2.274 0 4.01-1.234 4.01-3.025 0-1.438-.91-2.254-2.794-2.71l-1.54-.37c-1.178-.288-1.735-.714-1.735-1.4 0-.89.93-1.494 2.116-1.494 1.207 0 1.986.527 2.2 1.325h1.576c-.213-1.642-1.67-2.68-3.766-2.68-2.125 0-3.73 1.25-3.73 2.912zM32.49 66.254H18.04c-2.728 0-5.04 2.537-5.04 5.648v6.988c0 3.113 2.314 5.667 5.04 5.667h1.065V83.15h-1.22v4.15c0 2.108 2.04 3.288 3.43 1.81l4.505-4.94-.84.387h7.51c2.716 0 4.928-2.544 4.928-5.667v-6.988c0-3.12-2.21-5.648-4.928-5.648zm0 2.816c1.374 0 2.486 1.272 2.486 2.832v6.988c0 1.566-1.117 2.85-2.486 2.85h-7.51c-.315 0-.616.14-.843.388l-4.492 4.927c.248-.264.68-.014.68.245v-4.15c0-.78-.546-1.41-1.22-1.41H18.04c-1.4 0-2.598-1.32-2.598-2.85v-6.988c0-1.524 1.193-2.832 2.6-2.832H32.49zm6.805 7.034c2.514-.327 4.503-2.782 4.503-5.698V64.95c0-3.15-2.39-5.736-5.156-5.736h-12.03c-2.553 0-4.517 2.233-4.76 5.192l2.43.266c.13-1.56 1.08-2.642 2.33-2.642h12.03c1.45 0 2.714 1.366 2.714 2.92v5.456c0 1.456-1.033 2.73-2.335 2.9l.275 2.798z"/></g></svg>